<svg width="595" height="842" viewBox="0 0 595 842" fill="none" xmlns="http://www.w3.org/2000/svg">
<g clip-path="url(#clip0_22_655)">
<rect width="595" height="842" rx="50" fill="#FEFDEA"/>
<rect x="36.5" y="27.5" width="520" height="781" rx="49.5" fill="white" stroke="black"/>
<path d="M301.003 766.486C299.403 766.486 298.103 765.886 297.103 764.686C296.103 763.486 295.603 762.036 295.603 760.336C295.603 758.436 296.253 756.786 297.553 755.386C298.853 753.886 300.353 753.136 302.053 753.136C303.553 753.136 304.803 753.736 305.803 754.936C306.903 756.036 307.453 757.386 307.453 758.986C307.453 761.086 306.803 762.886 305.503 764.386C304.203 765.786 302.703 766.486 301.003 766.486ZM337.501 766.486C335.901 766.486 334.601 765.886 333.601 764.686C332.601 763.486 332.101 762.036 332.101 760.336C332.101 758.436 332.751 756.786 334.051 755.386C335.351 753.886 336.851 753.136 338.551 753.136C340.051 753.136 341.301 753.736 342.301 754.936C343.401 756.036 343.951 757.386 343.951 758.986C343.951 761.086 343.301 762.886 342.001 764.386C340.701 765.786 339.201 766.486 337.501 766.486ZM373.999 766.486C372.399 766.486 371.099 765.886 370.099 764.686C369.099 763.486 368.599 762.036 368.599 760.336C368.599 758.436 369.249 756.786 370.549 755.386C371.849 753.886 373.349 753.136 375.049 753.136C376.549 753.136 377.799 753.736 378.799 754.936C379.899 756.036 380.449 757.386 380.449 758.986C380.449 761.086 379.799 762.886 378.499 764.386C377.199 765.786 375.699 766.486 373.999 766.486Z" fill="black"/>
<path d="M36 77C36 49.3858 58.3858 27 86 27H509C536.614 27 559 49.3858 559 77V187H36V77Z" fill="#FFEA00"/>
<path d="M26.5 -42.5C88.902 -42.5 139.5 8.75719 139.5 72C139.5 135.243 88.902 186.5 26.5 186.5C-35.902 186.5 -86.5 135.243 -86.5 72C-86.5 8.75719 -35.902 -42.5 26.5 -42.5Z" fill="#FEFDEA" stroke="black"/>
<path d="M526 708.5C587.075 708.5 636.5 753.317 636.5 808.5C636.5 863.683 587.075 908.5 526 908.5C464.925 908.5 415.5 863.683 415.5 808.5C415.5 753.317 464.925 708.5 526 708.5Z" fill="#FEFDEA" stroke="black"/>
<rect x="389" y="809" width="104" height="34" fill="#FEFDEA"/>
<rect y="158" width="36" height="34" fill="#FEFDEA"/>
<rect x="557" y="703" width="38" height="34" fill="#FEFDEA"/>
<rect x="77" width="104" height="27" fill="#FEFDEA"/>
<path d="M184.612 92.768V87.008H178.852V75.36H173.028V51.616H179.492V74.72H185.252V86.368H190.5V74.72H196.26V51.616H202.788V75.36H196.9V87.008H191.14V92.768H184.612ZM216.352 92.768V87.008H210.528V57.44H216.352V51.616H234.4V57.44H240.288V63.84H233.76V58.08H216.992V69.024H228.64V75.36H216.992V86.368H233.76V80.544H240.288V87.008H234.4V92.768H216.352ZM248.028 92.768V51.616H254.492V57.44H260.252V63.2H266.14V80.544H271.26V51.616H277.788V92.768H271.26V87.008H265.5V81.184H259.612V63.84H254.492V92.768H248.028ZM295.174 92.768V58.08H290.054V63.84H283.59V57.44H289.414V51.616H307.462V57.44H313.35V63.84H306.822V58.08H301.702V92.768H295.174ZM319.153 92.768V51.616H325.617V57.44H331.377V63.2H337.265V80.544H342.385V51.616H348.913V92.768H342.385V87.008H336.625V81.184H330.737V63.84H325.617V92.768H319.153ZM362.477 92.768V87.008H356.653V57.44H362.477V51.616H380.525V57.44H386.413V87.008H380.525V92.768H362.477ZM363.117 86.368H379.885V58.08H363.117V86.368ZM394.153 92.768V57.44H399.977V51.616H418.025V57.44H423.913V75.36H418.025V81.184H415.209V86.368H420.969V92.768H414.569V87.008H408.681V81.184H400.617V92.768H394.153ZM400.617 74.72H417.385V58.08H400.617V74.72ZM190.465 169.768V140.2H196.289V134.44H202.049V128.616H208.577V134.44H214.337V140.2H220.225V169.768H213.697V158.184H196.929V169.768H190.465ZM196.929 151.72H213.697V140.84H207.937V135.08H202.689V140.84H196.929V151.72ZM238.299 169.768V164.008H232.539V152.36H226.715V128.616H233.179V151.72H238.939V163.368H244.187V151.72H249.947V128.616H256.475V152.36H250.587V164.008H244.827V169.768H238.299ZM270.039 169.768V164.008H264.215V134.44H270.039V128.616H288.087V134.44H293.975V140.84H287.447V135.08H270.679V146.024H282.327V152.36H270.679V163.368H287.447V157.544H293.975V164.008H288.087V169.768H270.039ZM301.715 169.768V128.616H308.179V134.44H313.939V140.2H319.827V157.544H324.947V128.616H331.475V169.768H324.947V164.008H319.187V158.184H313.299V140.84H308.179V169.768H301.715ZM345.039 169.768V164.008H339.215V128.616H345.679V163.368H362.447V128.616H368.975V164.008H363.087V169.768H345.039ZM382.539 169.768V164.008H376.715V134.44H382.539V128.616H400.587V134.44H406.475V140.84H399.947V135.08H383.179V146.024H394.827V152.36H383.179V163.368H399.947V157.544H406.475V164.008H400.587V169.768H382.539Z" fill="black"/>
<path d="M497.914 796.768V791.008H492.09V784.544H498.554V790.368H515.322V779.36H497.914V773.024H515.322V762.08H498.554V767.84H492.09V761.44H497.914V755.616H515.962V761.44H521.85V773.6H515.962V778.72H521.85V791.008H515.962V796.768H497.914Z" fill="black"/>
<path d="M55.914 110.768V105.008H50.09V98.544H56.554V104.368H73.322V93.36H55.914V87.024H73.322V76.08H56.554V81.84H50.09V75.44H55.914V69.616H73.962V75.44H79.85V87.6H73.962V92.72H79.85V105.008H73.962V110.768H55.914Z" fill="black"/>
<path d="M242.505 368.486C240.905 368.486 239.605 367.886 238.605 366.686C237.605 365.486 237.105 364.036 237.105 362.336C237.105 360.436 237.755 358.786 239.055 357.386C240.355 355.886 241.855 355.136 243.555 355.136C245.055 355.136 246.305 355.736 247.305 356.936C248.405 358.036 248.955 359.386 248.955 360.986C248.955 363.086 248.305 364.886 247.005 366.386C245.705 367.786 244.205 368.486 242.505 368.486ZM279.003 368.486C277.403 368.486 276.103 367.886 275.103 366.686C274.103 365.486 273.603 364.036 273.603 362.336C273.603 360.436 274.253 358.786 275.553 357.386C276.853 355.886 278.353 355.136 280.053 355.136C281.553 355.136 282.803 355.736 283.803 356.936C284.903 358.036 285.453 359.386 285.453 360.986C285.453 363.086 284.803 364.886 283.503 366.386C282.203 367.786 280.703 368.486 279.003 368.486ZM315.501 368.486C313.901 368.486 312.601 367.886 311.601 366.686C310.601 365.486 310.101 364.036 310.101 362.336C310.101 360.436 310.751 358.786 312.051 357.386C313.351 355.886 314.851 355.136 316.551 355.136C318.051 355.136 319.301 355.736 320.301 356.936C321.401 358.036 321.951 359.386 321.951 360.986C321.951 363.086 321.301 364.886 320.001 366.386C318.701 367.786 317.201 368.486 315.501 368.486ZM351.999 368.486C350.399 368.486 349.099 367.886 348.099 366.686C347.099 365.486 346.599 364.036 346.599 362.336C346.599 360.436 347.249 358.786 348.549 357.386C349.849 355.886 351.349 355.136 353.049 355.136C354.549 355.136 355.799 355.736 356.799 356.936C357.899 358.036 358.449 359.386 358.449 360.986C358.449 363.086 357.799 364.886 356.499 366.386C355.199 367.786 353.699 368.486 351.999 368.486ZM388.497 368.486C386.897 368.486 385.597 367.886 384.597 366.686C383.597 365.486 383.097 364.036 383.097 362.336C383.097 360.436 383.747 358.786 385.047 357.386C386.347 355.886 387.847 355.136 389.547 355.136C391.047 355.136 392.297 355.736 393.297 356.936C394.397 358.036 394.947 359.386 394.947 360.986C394.947 363.086 394.297 364.886 392.997 366.386C391.697 367.786 390.197 368.486 388.497 368.486Z" fill="black"/>
<path d="M256.505 548.486C254.905 548.486 253.605 547.886 252.605 546.686C251.605 545.486 251.105 544.036 251.105 542.336C251.105 540.436 251.755 538.786 253.055 537.386C254.355 535.886 255.855 535.136 257.555 535.136C259.055 535.136 260.305 535.736 261.305 536.936C262.405 538.036 262.955 539.386 262.955 540.986C262.955 543.086 262.305 544.886 261.005 546.386C259.705 547.786 258.205 548.486 256.505 548.486ZM293.003 548.486C291.403 548.486 290.103 547.886 289.103 546.686C288.103 545.486 287.603 544.036 287.603 542.336C287.603 540.436 288.253 538.786 289.553 537.386C290.853 535.886 292.353 535.136 294.053 535.136C295.553 535.136 296.803 535.736 297.803 536.936C298.903 538.036 299.453 539.386 299.453 540.986C299.453 543.086 298.803 544.886 297.503 546.386C296.203 547.786 294.703 548.486 293.003 548.486ZM329.501 548.486C327.901 548.486 326.601 547.886 325.601 546.686C324.601 545.486 324.101 544.036 324.101 542.336C324.101 540.436 324.751 538.786 326.051 537.386C327.351 535.886 328.851 535.136 330.551 535.136C332.051 535.136 333.301 535.736 334.301 536.936C335.401 538.036 335.951 539.386 335.951 540.986C335.951 543.086 335.301 544.886 334.001 546.386C332.701 547.786 331.201 548.486 329.501 548.486ZM365.999 548.486C364.399 548.486 363.099 547.886 362.099 546.686C361.099 545.486 360.599 544.036 360.599 542.336C360.599 540.436 361.249 538.786 362.549 537.386C363.849 535.886 365.349 535.136 367.049 535.136C368.549 535.136 369.799 535.736 370.799 536.936C371.899 538.036 372.449 539.386 372.449 540.986C372.449 543.086 371.799 544.886 370.499 546.386C369.199 547.786 367.699 548.486 365.999 548.486ZM402.497 548.486C400.897 548.486 399.597 547.886 398.597 546.686C397.597 545.486 397.097 544.036 397.097 542.336C397.097 540.436 397.747 538.786 399.047 537.386C400.347 535.886 401.847 535.136 403.547 535.136C405.047 535.136 406.297 535.736 407.297 536.936C408.397 538.036 408.947 539.386 408.947 540.986C408.947 543.086 408.297 544.886 406.997 546.386C405.697 547.786 404.197 548.486 402.497 548.486Z" fill="black"/>
<path d="M443.655 367.586V364.986C445.988 364.386 448.288 363.919 450.555 363.586C452.821 363.186 455.021 362.886 457.155 362.686L457.955 313.286H444.455V310.686L460.655 306.986H465.555V362.686L478.455 364.586V367.586H443.655Z" fill="black"/>
<path d="M438.933 544.586V537.986C439 535.119 439.833 532.486 441.433 530.086C443.033 527.619 445.067 525.319 447.533 523.186C450.067 520.986 452.767 518.886 455.633 516.886C458.5 514.819 461.167 512.753 463.633 510.686C466.1 508.619 468.133 506.519 469.733 504.386C471.333 502.186 472.133 499.853 472.133 497.386C472.133 495.519 471.767 493.919 471.033 492.586C470.3 491.186 469.067 489.953 467.333 488.886L472.433 491.786C467.767 490.719 463.167 490.186 458.633 490.186C455.833 490.186 453.033 490.353 450.233 490.686C447.5 491.019 444.733 491.519 441.933 492.186L440.733 486.186C444.2 485.453 447.433 484.886 450.433 484.486C453.5 484.086 456.367 483.886 459.033 483.886C465.567 483.886 470.667 485.019 474.333 487.286C478 489.553 479.833 492.886 479.833 497.286C479.833 500.286 479.033 503.053 477.433 505.586C475.833 508.119 473.767 510.486 471.233 512.686C468.767 514.886 466.1 517.019 463.233 519.086C460.433 521.086 457.767 523.086 455.233 525.086C452.767 527.086 450.733 529.153 449.133 531.286C447.533 533.419 446.7 535.686 446.633 538.086L446.533 544.586H438.933ZM442.233 544.586V539.386L479.733 538.486V544.586H442.233ZM474.133 544.586L478.933 524.886H481.833L482.133 544.586H474.133ZM441.033 506.286L440.733 486.186H448.333L443.933 506.286H441.033Z" fill="black"/>
<path d="M388.789 724.586V722.186C390.655 721.586 392.455 721.119 394.189 720.786C395.989 720.386 397.722 720.086 399.389 719.886L400.289 669.686L401.789 670.386L375.889 705.486L374.789 702.886H419.689V707.786H371.989L370.889 704.086L399.989 664.986H407.189V719.986L416.889 721.886V724.586H388.789Z" fill="black"/>
<path d="M398.798 256.97C398.243 256.97 397.752 256.778 397.326 256.394C396.942 255.967 396.75 255.477 396.75 254.922V216.202C396.75 215.391 396.856 214.794 397.07 214.41C397.326 214.026 397.795 213.77 398.478 213.642C399.16 213.514 400.27 213.45 401.806 213.45H403.662C410.872 213.45 416.419 214.602 420.302 216.906C424.184 219.21 426.126 222.474 426.126 226.698C426.126 232.33 422.264 236.511 414.542 239.242C416.547 240.522 418.744 242.421 421.134 244.938C423.566 247.413 425.678 250.442 427.47 254.026C427.64 254.239 427.726 254.538 427.726 254.922C427.726 255.477 427.534 255.967 427.15 256.394C426.766 256.778 426.275 256.97 425.678 256.97C424.952 256.97 424.355 256.586 423.886 255.818C417.912 245.962 412.174 241.034 406.67 241.034C405.262 241.034 403.299 241.226 400.782 241.61V254.922C400.782 255.477 400.59 255.967 400.206 256.394C399.822 256.778 399.352 256.97 398.798 256.97ZM400.782 237.642C404.11 237.557 407.395 237.13 410.638 236.362C413.923 235.551 416.654 234.335 418.83 232.714C421.006 231.093 422.094 229.087 422.094 226.698C422.094 223.669 420.472 221.365 417.23 219.786C413.987 218.207 409.4 217.418 403.47 217.418C402.275 217.418 401.379 217.439 400.782 217.482V237.642ZM447.693 256.97C444.578 256.97 441.805 256.287 439.373 254.922C436.941 253.514 435.063 251.637 433.741 249.29C432.418 246.943 431.757 244.383 431.757 241.61C431.757 238.709 432.354 235.999 433.549 233.482C434.786 230.922 436.493 228.874 438.669 227.338C440.845 225.802 443.341 225.034 446.157 225.034C448.717 225.034 450.893 225.525 452.685 226.506C454.519 227.487 455.885 228.661 456.781 230.026C457.719 231.391 458.189 232.607 458.189 233.674C458.189 234.442 457.677 235.125 456.653 235.722L436.812 247.05C437.879 249.098 439.33 250.655 441.165 251.722C442.999 252.746 445.154 253.258 447.628 253.258C448.994 253.258 450.423 252.917 451.917 252.234C453.453 251.551 454.669 250.741 455.565 249.802C455.863 249.375 456.29 249.162 456.845 249.162C457.399 249.162 457.847 249.354 458.189 249.738C458.573 250.079 458.765 250.527 458.765 251.082C458.765 251.509 458.594 251.935 458.253 252.362C457.101 253.685 455.522 254.794 453.517 255.69C451.554 256.543 449.613 256.97 447.693 256.97ZM454.221 233.162C453.623 231.711 452.685 230.623 451.405 229.898C450.125 229.173 448.397 228.81 446.221 228.81C444.173 228.81 442.338 229.386 440.717 230.538C439.095 231.647 437.815 233.162 436.877 235.082C435.981 237.002 435.511 239.114 435.469 241.418C435.469 242.271 435.511 242.954 435.597 243.466L454.221 233.162ZM467.915 256.97C467.36 256.97 466.87 256.778 466.443 256.394C466.059 256.01 465.867 255.583 465.867 255.114V226.89C465.867 226.335 466.059 225.887 466.443 225.546C466.87 225.162 467.36 224.97 467.915 224.97C468.47 224.97 468.939 225.162 469.323 225.546C469.707 225.887 469.899 226.335 469.899 226.89V237.002C471.136 233.162 472.843 230.218 475.019 228.17C477.238 226.079 479.734 225.034 482.507 225.034C484.854 225.034 486.71 225.631 488.075 226.826C489.44 228.021 490.422 229.919 491.019 232.522C491.616 235.082 491.915 238.538 491.915 242.89C491.915 247.157 491.894 249.951 491.851 251.274V254.922C491.851 255.477 491.659 255.967 491.275 256.394C490.934 256.778 490.486 256.97 489.931 256.97C489.419 256.97 488.971 256.778 488.587 256.394C488.203 255.967 488.011 255.498 488.011 254.986V251.402C487.968 250.079 487.947 247.327 487.947 243.146C487.947 239.178 487.734 236.17 487.307 234.122C486.923 232.074 486.304 230.687 485.451 229.962C484.64 229.194 483.467 228.81 481.931 228.81C480.48 228.81 479.051 229.343 477.643 230.41C476.235 231.477 474.998 232.991 473.931 234.954C472.523 237.514 471.499 239.925 470.859 242.186C470.262 244.447 469.942 246.773 469.899 249.162L469.835 254.858C469.835 255.455 469.643 255.967 469.259 256.394C468.918 256.778 468.47 256.97 467.915 256.97ZM504.89 257.034C504.335 257.034 503.845 256.842 503.418 256.458C503.034 256.074 502.842 255.626 502.842 255.114V229.002H495.738C495.183 229.002 494.714 228.81 494.33 228.426C493.946 227.999 493.754 227.509 493.754 226.954C493.754 226.357 493.967 225.887 494.394 225.546C494.821 225.162 495.311 224.97 495.866 224.97H502.842V216.202C502.842 215.647 503.034 215.178 503.418 214.794C503.845 214.367 504.335 214.154 504.89 214.154C505.487 214.154 505.957 214.367 506.298 214.794C506.682 215.178 506.874 215.647 506.874 216.202V224.97H514.042C514.639 224.97 515.13 225.162 515.514 225.546C515.898 225.93 516.09 226.399 516.09 226.954C516.09 227.509 515.877 227.999 515.45 228.426C515.066 228.81 514.597 229.002 514.042 229.002H506.874V255.114C506.874 255.626 506.661 256.074 506.234 256.458C505.85 256.842 505.402 257.034 504.89 257.034Z" fill="black"/>
<path d="M391.438 262.986H514.554V266.186H391.438V262.986Z" fill="black"/>
<g clip-path="url(#clip1_22_655)">
<mask id="mask0_22_655" style="mask-type:luminance" maskUnits="userSpaceOnUse" x="107" y="442" width="123" height="136">
<path d="M229.553 481.708L166.74 442.586L107 538.503L169.813 577.625L229.553 481.708Z" fill="white"/>
</mask>
<g mask="url(#mask0_22_655)">
<path d="M228.865 481.868L166.901 443.274L107.689 538.343L169.653 576.936L228.865 481.868Z" fill="white" stroke="black"/>
<path d="M226.27 483.197L166.852 446.189L154.693 465.712L214.11 502.72L226.27 483.197Z" fill="#FFEA00"/>
</g>
<mask id="mask1_22_655" style="mask-type:luminance" maskUnits="userSpaceOnUse" x="92" y="442" width="74" height="114">
<path d="M166 442.586H92V555.586H166V442.586Z" fill="white"/>
</mask>
<g mask="url(#mask1_22_655)">
<path d="M165.5 443.086H92.5V555.086H165.5V443.086Z" fill="white" stroke="black"/>
<path d="M164 445.586H94V468.586H164V445.586Z" fill="#FFEA00"/>
<path d="M115.41 535.666C115.41 532.253 115.922 529.351 116.946 526.962C118.013 524.573 119.378 522.589 121.042 521.01C122.706 519.389 124.797 517.767 127.314 516.146C129.575 514.738 131.261 513.607 132.37 512.754C133.522 511.901 134.482 510.855 135.25 509.618C136.061 508.381 136.466 506.951 136.466 505.33C136.466 503.367 135.677 501.725 134.098 500.402C132.562 499.079 130.663 498.418 128.402 498.418C126.226 498.418 124.327 498.951 122.706 500.018C121.085 501.085 119.89 502.066 119.122 502.962C118.695 503.431 118.354 503.773 118.098 503.986C117.885 504.157 117.565 504.242 117.138 504.242C116.541 504.242 116.05 504.029 115.666 503.602C115.282 503.175 115.09 502.706 115.09 502.194C115.09 501.81 115.218 501.426 115.474 501.042C115.73 500.658 116.221 500.146 116.946 499.506C120.402 496.135 124.221 494.45 128.402 494.45C130.706 494.45 132.775 494.941 134.61 495.922C136.445 496.861 137.874 498.162 138.898 499.826C139.965 501.49 140.498 503.325 140.498 505.33C140.498 507.634 140.007 509.618 139.026 511.282C138.087 512.903 136.935 514.269 135.57 515.378C134.205 516.445 132.306 517.767 129.874 519.346C127.783 520.711 126.055 521.991 124.69 523.186C123.325 524.338 122.151 525.789 121.17 527.538C120.189 529.245 119.634 531.271 119.506 533.618H139.026C139.581 533.618 140.05 533.831 140.434 534.258C140.861 534.642 141.074 535.111 141.074 535.666C141.074 536.178 140.861 536.626 140.434 537.01C140.05 537.394 139.581 537.586 139.026 537.586H115.41V535.666Z" fill="black" fill-opacity="0.5"/>
</g>
<mask id="mask2_22_655" style="mask-type:luminance" maskUnits="userSpaceOnUse" x="107" y="442" width="123" height="136">
<path d="M229.553 481.708L166.74 442.586L107 538.503L169.813 577.625L229.553 481.708Z" fill="white"/>
</mask>
<g mask="url(#mask2_22_655)">
<path d="M228.865 481.868L166.901 443.274L107.689 538.343L169.653 576.936L228.865 481.868Z" fill="white" stroke="black"/>
<path d="M226.27 483.197L166.852 446.189L154.693 465.712L214.11 502.72L226.27 483.197Z" fill="#FFEA00"/>
</g>
<mask id="mask3_22_655" style="mask-type:luminance" maskUnits="userSpaceOnUse" x="92" y="442" width="74" height="114">
<path d="M166 442.586H92V555.586H166V442.586Z" fill="white"/>
</mask>
<g mask="url(#mask3_22_655)">
<path d="M165.5 443.086H92.5V555.086H165.5V443.086Z" fill="white" stroke="black"/>
<path d="M164 445.586H94V468.586H164V445.586Z" fill="#FFEA00"/>
<path d="M115.41 535.666C115.41 532.253 115.922 529.351 116.946 526.962C118.013 524.573 119.378 522.589 121.042 521.01C122.706 519.389 124.797 517.767 127.314 516.146C129.575 514.738 131.261 513.607 132.37 512.754C133.522 511.901 134.482 510.855 135.25 509.618C136.061 508.381 136.466 506.951 136.466 505.33C136.466 503.367 135.677 501.725 134.098 500.402C132.562 499.079 130.663 498.418 128.402 498.418C126.226 498.418 124.327 498.951 122.706 500.018C121.085 501.085 119.89 502.066 119.122 502.962C118.695 503.431 118.354 503.773 118.098 503.986C117.885 504.157 117.565 504.242 117.138 504.242C116.541 504.242 116.05 504.029 115.666 503.602C115.282 503.175 115.09 502.706 115.09 502.194C115.09 501.81 115.218 501.426 115.474 501.042C115.73 500.658 116.221 500.146 116.946 499.506C120.402 496.135 124.221 494.45 128.402 494.45C130.706 494.45 132.775 494.941 134.61 495.922C136.445 496.861 137.874 498.162 138.898 499.826C139.965 501.49 140.498 503.325 140.498 505.33C140.498 507.634 140.007 509.618 139.026 511.282C138.087 512.903 136.935 514.269 135.57 515.378C134.205 516.445 132.306 517.767 129.874 519.346C127.783 520.711 126.055 521.991 124.69 523.186C123.325 524.338 122.151 525.789 121.17 527.538C120.189 529.245 119.634 531.271 119.506 533.618H139.026C139.581 533.618 140.05 533.831 140.434 534.258C140.861 534.642 141.074 535.111 141.074 535.666C141.074 536.178 140.861 536.626 140.434 537.01C140.05 537.394 139.581 537.586 139.026 537.586H115.41V535.666Z" fill="black" fill-opacity="0.5"/>
</g>
</g>
<g clip-path="url(#clip2_22_655)">
<mask id="mask4_22_655" style="mask-type:luminance" maskUnits="userSpaceOnUse" x="92" y="263" width="74" height="114">
<path d="M166 263.586H92V376.586H166V263.586Z" fill="white"/>
</mask>
<g mask="url(#mask4_22_655)">
<path d="M165.5 264.086H92.5V376.086H165.5V264.086Z" fill="white" stroke="black"/>
<path d="M164 266.586H94V289.586H164V266.586Z" fill="#FFEA00"/>
</g>
<mask id="mask5_22_655" style="mask-type:luminance" maskUnits="userSpaceOnUse" x="92" y="263" width="74" height="114">
<path d="M166 263.586H92V376.586H166V263.586Z" fill="white"/>
</mask>
<g mask="url(#mask5_22_655)">
<path d="M165.5 264.086H92.5V376.086H165.5V264.086Z" fill="white" stroke="black"/>
<path d="M164 266.586H94V289.586H164V266.586Z" fill="#FFEA00"/>
<path d="M121.521 358.586C120.966 358.586 120.497 358.394 120.113 358.01C119.729 357.626 119.537 357.157 119.537 356.602C119.537 356.047 119.729 355.578 120.113 355.194C120.497 354.767 120.966 354.554 121.521 354.554H126.897L127.409 322.49L122.801 327.418C122.417 327.845 121.926 328.058 121.329 328.058C120.774 328.058 120.305 327.866 119.921 327.482C119.537 327.055 119.345 326.565 119.345 326.01C119.345 325.498 119.537 325.05 119.921 324.666L127.985 315.898C128.155 315.727 128.369 315.578 128.625 315.45C128.923 315.322 129.179 315.258 129.393 315.258C129.99 315.258 130.481 315.471 130.865 315.898C131.249 316.282 131.441 316.751 131.441 317.306L130.929 354.554H135.153C135.793 354.554 136.305 354.767 136.689 355.194C137.073 355.578 137.265 356.047 137.265 356.602C137.265 357.157 137.051 357.626 136.625 358.01C136.241 358.394 135.793 358.586 135.281 358.586H121.521Z" fill="black" fill-opacity="0.51"/>
</g>
<mask id="mask6_22_655" style="mask-type:luminance" maskUnits="userSpaceOnUse" x="92" y="263" width="74" height="114">
<path d="M166 263.586H92V376.586H166V263.586Z" fill="white"/>
</mask>
<g mask="url(#mask6_22_655)">
<path d="M165.5 264.086H92.5V376.086H165.5V264.086Z" fill="white" stroke="black"/>
<path d="M164 266.586H94V289.586H164V266.586Z" fill="#FFEA00"/>
</g>
<mask id="mask7_22_655" style="mask-type:luminance" maskUnits="userSpaceOnUse" x="92" y="263" width="74" height="114">
<path d="M166 263.586H92V376.586H166V263.586Z" fill="white"/>
</mask>
<g mask="url(#mask7_22_655)">
<path d="M165.5 264.086H92.5V376.086H165.5V264.086Z" fill="white" stroke="black"/>
<path d="M164 266.586H94V289.586H164V266.586Z" fill="#FFEA00"/>
<path d="M121.521 358.586C120.966 358.586 120.497 358.394 120.113 358.01C119.729 357.626 119.537 357.157 119.537 356.602C119.537 356.047 119.729 355.578 120.113 355.194C120.497 354.767 120.966 354.554 121.521 354.554H126.897L127.409 322.49L122.801 327.418C122.417 327.845 121.926 328.058 121.329 328.058C120.774 328.058 120.305 327.866 119.921 327.482C119.537 327.055 119.345 326.565 119.345 326.01C119.345 325.498 119.537 325.05 119.921 324.666L127.985 315.898C128.155 315.727 128.369 315.578 128.625 315.45C128.923 315.322 129.179 315.258 129.393 315.258C129.99 315.258 130.481 315.471 130.865 315.898C131.249 316.282 131.441 316.751 131.441 317.306L130.929 354.554H135.153C135.793 354.554 136.305 354.767 136.689 355.194C137.073 355.578 137.265 356.047 137.265 356.602C137.265 357.157 137.051 357.626 136.625 358.01C136.241 358.394 135.793 358.586 135.281 358.586H121.521Z" fill="black" fill-opacity="0.51"/>
</g>
</g>
<g clip-path="url(#clip3_22_655)">
<mask id="mask8_22_655" style="mask-type:luminance" maskUnits="userSpaceOnUse" x="141" y="654" width="135" height="121">
<path d="M275.805 718.925L239.248 654.586L141 710.41L177.557 774.75L275.805 718.925Z" fill="white"/>
</mask>
<g mask="url(#mask8_22_655)">
<path d="M275.124 718.737L239.06 655.268L141.682 710.598L177.745 774.068L275.124 718.737Z" fill="white" stroke="black"/>
<path d="M272.209 718.668L237.627 657.807L217.63 669.169L252.212 730.031L272.209 718.668Z" fill="#FFEA00"/>
</g>
<mask id="mask9_22_655" style="mask-type:luminance" maskUnits="userSpaceOnUse" x="116" y="628" width="123" height="136">
<path d="M238.553 667.708L175.74 628.586L116 724.503L178.813 763.625L238.553 667.708Z" fill="white"/>
</mask>
<g mask="url(#mask9_22_655)">
<path d="M237.865 667.868L175.901 629.274L116.689 724.343L178.653 762.936L237.865 667.868Z" fill="white" stroke="black"/>
<path d="M235.27 669.197L175.852 632.189L163.693 651.712L223.11 688.72L235.27 669.197Z" fill="#FFEA00"/>
</g>
<mask id="mask10_22_655" style="mask-type:luminance" maskUnits="userSpaceOnUse" x="90" y="628" width="74" height="114">
<path d="M164 628.586H90V741.586H164V628.586Z" fill="white"/>
</mask>
<g mask="url(#mask10_22_655)">
<path d="M163.5 629.086H90.5V741.086H163.5V629.086Z" fill="white" stroke="black"/>
<path d="M162 631.586H92V654.586H162V631.586Z" fill="#FFEA00"/>
<path d="M126.417 712.97C123.899 712.97 121.723 712.501 119.889 711.562C118.097 710.581 116.731 709.557 115.793 708.49C114.854 707.424 114.235 706.57 113.937 705.93C113.723 705.589 113.617 705.162 113.617 704.65C113.617 704.096 113.787 703.648 114.129 703.306C114.513 702.965 114.982 702.794 115.537 702.794C116.39 702.794 116.987 703.157 117.329 703.882C118.011 705.077 119.078 706.229 120.529 707.338C122.022 708.405 123.942 708.938 126.289 708.938C127.825 708.938 129.318 708.597 130.769 707.914C132.219 707.232 133.393 706.208 134.289 704.842C135.227 703.434 135.697 701.749 135.697 699.786C135.697 697.44 135.078 695.562 133.841 694.154C132.603 692.746 131.174 691.765 129.553 691.21C127.931 690.656 126.481 690.378 125.201 690.378C124.646 690.378 124.177 690.186 123.793 689.802C123.451 689.418 123.281 688.949 123.281 688.394C123.281 687.797 123.473 687.328 123.857 686.986C124.241 686.602 124.71 686.41 125.265 686.41C126.715 686.41 128.166 686.069 129.617 685.386C131.11 684.661 132.326 683.722 133.265 682.57C134.203 681.418 134.673 680.181 134.673 678.858C134.673 677.92 134.331 677.002 133.649 676.106C133.009 675.21 132.049 674.485 130.769 673.93C129.531 673.376 128.059 673.098 126.353 673.098C124.475 673.098 122.982 673.333 121.873 673.802C120.763 674.272 119.761 674.848 118.865 675.53C118.31 675.957 117.841 676.17 117.457 676.17C116.817 676.17 116.326 675.978 115.985 675.594C115.643 675.168 115.473 674.698 115.473 674.186C115.473 673.333 116.198 672.437 117.649 671.498C118.758 670.816 120.059 670.24 121.553 669.77C123.046 669.301 124.646 669.066 126.353 669.066C128.614 669.066 130.683 669.514 132.561 670.41C134.481 671.264 135.974 672.437 137.041 673.93C138.15 675.424 138.705 677.066 138.705 678.858C138.705 680.778 138.15 682.57 137.041 684.234C135.931 685.856 134.459 687.2 132.625 688.266C134.886 689.29 136.614 690.826 137.809 692.874C139.046 694.922 139.665 697.226 139.665 699.786C139.665 702.773 138.961 705.269 137.553 707.274C136.145 709.237 134.417 710.688 132.369 711.626C130.321 712.522 128.337 712.97 126.417 712.97Z" fill="black" fill-opacity="0.5"/>
</g>
<mask id="mask11_22_655" style="mask-type:luminance" maskUnits="userSpaceOnUse" x="141" y="654" width="135" height="121">
<path d="M275.805 718.925L239.248 654.586L141 710.41L177.557 774.75L275.805 718.925Z" fill="white"/>
</mask>
<g mask="url(#mask11_22_655)">
<path d="M275.124 718.737L239.06 655.268L141.682 710.598L177.745 774.068L275.124 718.737Z" fill="white" stroke="black"/>
<path d="M272.209 718.668L237.627 657.807L217.63 669.169L252.212 730.031L272.209 718.668Z" fill="#FFEA00"/>
</g>
<mask id="mask12_22_655" style="mask-type:luminance" maskUnits="userSpaceOnUse" x="116" y="628" width="123" height="136">
<path d="M238.553 667.708L175.74 628.586L116 724.503L178.813 763.625L238.553 667.708Z" fill="white"/>
</mask>
<g mask="url(#mask12_22_655)">
<path d="M237.865 667.868L175.901 629.274L116.689 724.343L178.653 762.936L237.865 667.868Z" fill="white" stroke="black"/>
<path d="M235.27 669.197L175.852 632.189L163.693 651.712L223.11 688.72L235.27 669.197Z" fill="#FFEA00"/>
</g>
<mask id="mask13_22_655" style="mask-type:luminance" maskUnits="userSpaceOnUse" x="90" y="628" width="74" height="114">
<path d="M164 628.586H90V741.586H164V628.586Z" fill="white"/>
</mask>
<g mask="url(#mask13_22_655)">
<path d="M163.5 629.086H90.5V741.086H163.5V629.086Z" fill="white" stroke="black"/>
<path d="M162 631.586H92V654.586H162V631.586Z" fill="#FFEA00"/>
<path d="M126.417 712.97C123.899 712.97 121.723 712.501 119.889 711.562C118.097 710.581 116.731 709.557 115.793 708.49C114.854 707.424 114.235 706.57 113.937 705.93C113.723 705.589 113.617 705.162 113.617 704.65C113.617 704.096 113.787 703.648 114.129 703.306C114.513 702.965 114.982 702.794 115.537 702.794C116.39 702.794 116.987 703.157 117.329 703.882C118.011 705.077 119.078 706.229 120.529 707.338C122.022 708.405 123.942 708.938 126.289 708.938C127.825 708.938 129.318 708.597 130.769 707.914C132.219 707.232 133.393 706.208 134.289 704.842C135.227 703.434 135.697 701.749 135.697 699.786C135.697 697.44 135.078 695.562 133.841 694.154C132.603 692.746 131.174 691.765 129.553 691.21C127.931 690.656 126.481 690.378 125.201 690.378C124.646 690.378 124.177 690.186 123.793 689.802C123.451 689.418 123.281 688.949 123.281 688.394C123.281 687.797 123.473 687.328 123.857 686.986C124.241 686.602 124.71 686.41 125.265 686.41C126.715 686.41 128.166 686.069 129.617 685.386C131.11 684.661 132.326 683.722 133.265 682.57C134.203 681.418 134.673 680.181 134.673 678.858C134.673 677.92 134.331 677.002 133.649 676.106C133.009 675.21 132.049 674.485 130.769 673.93C129.531 673.376 128.059 673.098 126.353 673.098C124.475 673.098 122.982 673.333 121.873 673.802C120.763 674.272 119.761 674.848 118.865 675.53C118.31 675.957 117.841 676.17 117.457 676.17C116.817 676.17 116.326 675.978 115.985 675.594C115.643 675.168 115.473 674.698 115.473 674.186C115.473 673.333 116.198 672.437 117.649 671.498C118.758 670.816 120.059 670.24 121.553 669.77C123.046 669.301 124.646 669.066 126.353 669.066C128.614 669.066 130.683 669.514 132.561 670.41C134.481 671.264 135.974 672.437 137.041 673.93C138.15 675.424 138.705 677.066 138.705 678.858C138.705 680.778 138.15 682.57 137.041 684.234C135.931 685.856 134.459 687.2 132.625 688.266C134.886 689.29 136.614 690.826 137.809 692.874C139.046 694.922 139.665 697.226 139.665 699.786C139.665 702.773 138.961 705.269 137.553 707.274C136.145 709.237 134.417 710.688 132.369 711.626C130.321 712.522 128.337 712.97 126.417 712.97Z" fill="black" fill-opacity="0.5"/>
</g>
</g>
</g>
<rect x="0.5" y="0.5" width="594" height="841" rx="49.5" stroke="black"/>
<defs>
<clipPath id="clip0_22_655">
<rect width="595" height="842" rx="50" fill="white"/>
</clipPath>
<clipPath id="clip1_22_655">
<rect width="138" height="136" fill="white" transform="translate(92 442.586)"/>
</clipPath>
<clipPath id="clip2_22_655">
<rect width="74" height="113" fill="white" transform="translate(92 263.586)"/>
</clipPath>
<clipPath id="clip3_22_655">
<rect width="186" height="147" fill="white" transform="translate(90 628.586)"/>
</clipPath>
</defs>
</svg>
