<svg width="319" height="118" viewBox="0 0 319 118" fill="none" xmlns="http://www.w3.org/2000/svg">
<path d="M17.036 117.18L224.325 116.318C227.167 116.306 229.418 113.879 229.374 111.038C228.182 34.1733 280.061 21.1686 311.342 26.1196C314.573 26.6311 317.666 24.2366 317.666 20.9651L317.668 5.50163C317.668 2.74002 315.429 0.50114 312.668 0.50113L6.78035 0.499688C4.04406 0.49968 1.81604 2.69914 1.78076 5.43519L0.500266 104.68C0.492045 105.315 0.605022 105.946 0.833107 106.539L1.69087 108.769C1.79305 109.035 1.91772 109.291 2.06354 109.536L3.17079 111.392C3.48503 111.919 3.89355 112.383 4.3759 112.762L8.66712 116.134C9.55363 116.83 10.6495 117.207 11.7769 117.202L17.036 117.18Z" fill="#FEFDEA" stroke="black"/>
</svg>
