<svg class='main-bg' width="323" height="468" viewBox="0 0 323 468" fill="none" xmlns="http://www.w3.org/2000/svg">
<path class='main-bg' d="M306.297 2.5H89.6858C93.3325 93.5093 31.946 99.4081 0.796875 90.9813V456.493L2.62024 460.707L5.35528 463.867L8.54616 466.5H232.797C228.63 430.197 240.397 361.644 320.797 377.854V23.2686V15.1638L317.606 7.76674L312.297 4.01965L306.297 2.5Z" fill=""/>
<path class='card-border' d="M104.025 0.0254245C112.46 -0.0397074 123.518 0.0299344 131.922 0.125522C134.556 0.155168 133.222 0.287688 135.04 0.31412C138.596 0.365646 141.909 0.300652 145.423 0.362032C146.587 0.383023 145.138 0.592935 146.359 0.610139C153.05 0.702908 159.38 0.649441 166.159 0.694062C199.548 0.914213 232.368 0.993012 266.165 1.08865C277.309 1.12001 290.856 1.31051 302.366 1.2272C303.71 1.21729 302.909 1.03304 303.165 1.01785C305.12 0.904484 305.805 0.934855 306.297 1.00147L306.665 1.04733C307.149 1.2421 307.417 1.42339 308.711 1.77727C309.989 2.12678 311.287 2.47813 312.598 2.83012L313.004 3.01711C314.736 4.27617 316.498 5.54878 318.272 6.82278L318.535 7.00729L318.667 7.3091C319.709 9.78075 320.767 12.2639 321.822 14.7216L321.913 15.1638C321.908 17.9058 321.911 20.6221 321.921 23.2686C321.927 25.0583 321.937 26.8162 321.949 28.5284C321.98 32.7828 322.346 28.5172 322.14 32.8009C322.127 33.0983 321.931 32.0189 321.91 33.1856C321.863 35.8315 321.898 40.8514 321.883 42.902C321.852 46.854 321.854 47.5079 321.851 51.2459C321.847 56.356 321.749 62.4339 321.794 67.9166C321.804 69.0868 322.004 67.5375 322.039 69.4039C322.073 71.272 322.056 76.2138 322.008 77.8799C321.961 79.5464 321.803 78.8368 321.767 79.1318C321.462 81.558 321.885 87.2745 321.895 88.0097C322.073 101.42 321.832 112.92 321.833 125.509C321.834 135.065 321.914 145.283 321.903 154.376C321.889 165.21 321.78 174.391 321.799 184.915C321.801 186.026 322.037 184.724 322.039 186.081C322.067 200.493 322.041 214.806 321.882 229.156C321.866 230.595 321.658 228.74 321.63 230.178C321.46 238.981 321.051 252.91 321.952 258.139C321.917 264.102 321.881 271.341 321.699 276.676C321.582 280.115 321.357 276.774 321.453 281C321.474 281.953 321.672 280.713 321.689 282.142C321.761 288.159 321.697 294.733 321.799 300.685C321.821 301.896 321.998 301.565 322.029 301.908C322.288 304.791 321.861 309.591 321.83 310.637C321.599 318.604 321.69 324.422 321.684 331.844C321.683 333.567 321.92 331.531 321.927 333.188C321.962 341.783 321.941 350.688 321.836 359.104C321.812 360.976 321.609 359.255 321.587 360.149C321.493 364.094 321.876 364.968 321.793 368.752C321.776 369.549 321.603 369.1 321.584 369.245C321.285 371.522 321.708 373.501 321.718 374.086C321.741 375.419 321.745 376.665 321.738 377.854L321.741 379L320.611 378.776C315.221 377.676 311.139 376.762 305.345 376.358C304.483 376.306 306.405 376.655 303.991 376.503C288.223 375.45 270.832 378.711 258.421 388.592C256.519 390.099 257.758 388.881 257.626 388.96C255.486 390.308 254.6 391.781 254.052 392.337C249.656 396.796 246.017 401.515 244.342 405.47C233.908 423.765 231.559 445.745 233.554 466.413L233.654 467.259L232.797 467.262C227.156 467.221 221.52 467.158 215.889 467.062C215.55 467.057 216.157 466.847 215.481 466.838C207.338 466.72 208.902 467.046 203.514 467.444C202.156 467.544 198.027 467.063 197.662 467.028C196.331 466.898 197.711 466.586 197.266 466.561C193.577 466.364 194.178 467.394 189.203 467.395C189.047 467.393 189.701 467.203 189.283 467.184C187.986 467.125 186.7 467.201 185.43 467.135C182.525 466.984 181.49 466.483 177.052 466.775C176.49 466.813 177.348 467.397 172.906 467.37C171.135 467.358 163.296 467.368 161.099 467.33C158.905 467.292 160.411 467.104 160.255 467.096C154.343 466.847 156.584 466.744 153.622 466.375C150.66 466.007 151.482 466.884 150.274 466.981C149.065 467.079 144.73 466.873 143.665 466.802C142.6 466.731 143.928 466.611 142.981 466.57C136.704 466.306 140.226 467.005 138.158 467.144C133.281 467.474 129.483 466.824 125.019 466.76C123.811 466.743 124.796 466.891 123.721 466.905C119.461 466.958 116.899 466.755 112.052 466.941C111.259 466.971 107.341 467.362 104.805 467.075C104.446 467.034 105.466 466.872 103.651 466.836C100.938 466.781 96.0515 466.746 93.136 466.8C90.9835 466.84 93.4507 467.107 90.7413 467.024C89.5372 466.987 91.7689 466.831 89.5067 466.774C87.2565 466.718 81.503 466.725 79.3137 466.73C77.1283 466.736 78.3245 466.938 78.1479 466.952C77.0792 467.03 72.8851 467.127 72.5145 467.127C53.82 467.152 36.5809 466.811 18.3795 466.923C16.951 466.932 17.9025 467.145 17.6846 467.149C12.7947 467.238 16.65 466.671 13.2341 466.481C13.7143 466.902 11.8197 466.84 8.54616 466.88L8.41102 466.88L8.30455 466.793C8.23285 466.735 8.16026 466.677 8.08679 466.618C6.79179 465.579 7.38227 466.284 7.25452 466.201C6.27359 465.548 5.50749 464.902 4.94188 464.368L4.8642 464.292C4.34835 463.608 4.04933 463.099 3.92462 462.901C3.47347 462.186 2.89011 461.535 2.34776 460.942L2.28951 460.85C1.96711 460.159 1.66409 459.529 1.52345 459.001C1.23389 457.918 2.47076 460.163 1.15588 457.133C0.664079 456.373 1.20586 458.586 0.299413 456.708L0.25483 456.493C0.251606 456.415 0.248795 456.331 0.246427 456.241C-0.00197226 446.778 0.315942 429.113 0.348965 421.504C0.381961 413.91 0.353354 411.458 0.40939 407.033C0.510708 399.04 0.210082 401.969 0.0724771 397.006C-0.0651119 392.029 0.674571 394.449 0.833583 393.733C0.992523 393.031 0.828911 392.264 0.916285 391.39C1.00364 390.519 1.11176 392.405 1.14456 390.356C1.17732 388.307 0.894562 382.704 0.728298 381.978C0.376054 380.442 0.0063597 382.967 0.136259 377.545C0.143968 377.233 0.338464 378.245 0.358121 377.051C0.507852 367.566 0.517133 357.713 0.649563 348.241C0.668077 346.938 0.884447 348.103 0.89767 347.345C1.03607 339.449 0.671237 342.272 0.265958 337.944C0.805297 338.916 1.13527 336.523 1.13845 330.531C1.14056 326.928 0.905 327.549 0.738979 325.219C0.688932 324.52 0.850673 321.971 0.739894 321.509C0.377774 319.986 -0.0275973 322.387 0.133817 316.209C0.141488 315.938 0.339708 316.801 0.351712 315.864C0.430287 309.81 0.0515142 309.086 0.00564384 302.541C-0.0303488 297.412 0.200622 288.289 0.238187 282.448C0.844561 282.571 0.705709 277.054 0.287625 274.816C0.304742 271.026 0.281107 266.932 0.338895 263.268C0.358596 262.007 0.534158 262.836 0.553127 262.677C0.850702 260.238 0.443952 258.591 0.428006 257.772C0.272996 248.905 0.581278 241.68 0.279996 233.217C0.269145 232.917 -0.152061 232.43 0.155485 230.168C0.176684 230.022 0.368325 232.817 0.383145 228.836C0.397998 224.854 0.623795 217.348 0.428616 211.821C0.381628 210.483 0.0396941 207.099 0.306851 204.384C0.343129 204.022 0.463932 204.418 0.531155 203.896C0.745352 202.208 0.319618 201.286 0.681301 199.302C1.04297 197.318 1.31383 193.19 1.0643 187.616C1.05704 187.438 0.719605 186.118 0.724941 184.365C0.733748 181.567 0.804043 177.594 0.801845 174.672C0.800671 173.273 0.591139 174.168 0.587307 173.925C0.469893 164.518 0.656689 157.823 0.737758 147.745C0.753034 145.898 0.467307 140.589 0.693203 137.012C0.940488 133.085 1.96916 137.121 1.72408 128.094C1.62606 124.453 0.321007 119.844 0.997157 113.301C0.896218 105.657 0.981692 98.3583 1.01329 90.9813L0.74036 91.1902C5.43174 92.4768 10.3111 93.3073 15.3708 93.6219C15.9444 93.6609 17.7815 93.4213 19.1123 93.469C21.1166 93.5438 22.1909 93.7087 23.6256 93.6969C29.6101 93.6226 35.0462 92.7752 40.6235 91.3903C42.7307 90.8383 42.0572 91.2247 44.5507 90.4652C47.0365 89.6578 48.5924 88.8646 51.8489 87.498C54.2894 86.4458 56.903 85.6039 59.9186 83.6727C59.7624 83.1908 61.86 81.9371 65.0934 79.0228C65.7 78.467 64.9272 78.9206 65.2077 78.6515C66.3382 77.5582 67.5218 76.6246 68.5132 75.4831C68.7521 75.2073 68.6492 75.0837 68.8358 74.8505C70.4601 72.8749 73.3185 69.8316 73.7991 69.2425C75.6107 67.1681 76.1658 65.9047 77.3369 64.1567C78.4899 62.3848 76.9902 65.1765 78.287 63.0613C80.993 58.6489 83.5734 52.4027 85.0783 47.425C85.6954 45.3952 85.0714 46.7198 85.1551 46.4279C86.3405 42.297 87.4666 38.0026 87.4666 35.5984C89.0565 32.7687 87.8841 33.0597 88.8408 26.9007C88.9108 26.4072 89.5 25.833 89.3628 27.7429C89.2172 29.6831 88.699 32.3144 88.3431 35.0087C88.2742 35.6453 88.0731 39.1618 87.9834 39.6411C87.3534 43.4858 86.4212 43.7388 86.3394 43.9303C85.3536 45.962 84.5084 50.2749 84.1411 51.3284C82.5002 56.3492 80.5181 60.2519 78.3804 64.1392C77.0004 66.5879 77.2091 67.1668 75.9229 69.0014C71.3778 75.0622 69.0316 76.4737 63.97 81.4567C62.8268 82.4611 64.462 82.1265 59.6514 84.8465C59.3585 85.0318 55.6933 86.8015 53.6804 88.0328C53.43 88.1917 53.5095 88.3333 53.1644 88.5151C50.8488 89.7115 49.1792 90.2713 46.5182 91.2766C43.86 92.2733 40.574 93.28 37.3732 93.8544C35.453 94.2131 32.9232 94.2748 31.9978 94.309C29.3661 94.4312 26.5796 94.9521 24.9526 94.746C23.3166 94.5279 26.4799 94.0837 22.2183 93.9773C22.0624 94.3981 21.699 94.8289 21.4403 95.2495C14.3056 95.1761 7.26174 94.1765 0.437163 92.3109L2.17432 90.9813C2.16434 93.2511 2.15959 95.527 2.16415 97.8137C2.16687 98.9684 2.39283 97.7875 2.40157 99.0254C2.43747 104.248 2.27639 108.81 2.34054 114.226C2.39105 118.418 2.6303 123.016 2.69057 127.399C2.20962 130.077 2.37289 136.582 2.32894 141.308C2.31375 142.963 2.1853 142.853 2.14339 144.03C1.98841 148.471 2.41342 146.39 2.48031 147.607C2.76577 152.831 1.80377 153.278 1.82754 159.437C1.82847 159.763 2.34126 163.752 2.37319 164.301C2.58142 167.791 2.19471 164.879 2.15682 167.063C2.08758 171.051 1.96512 173.823 2.11532 178.502C2.1598 179.867 2.47942 183.14 2.2322 185.79C2.19983 186.138 2.03033 185.946 2.02041 186.226C1.85495 191.305 2.38752 191.438 2.56789 194.34C2.74822 197.243 2.38058 201.726 2.27462 202.638C2.00051 205.025 2.15747 200.809 2.13058 200.68C1.81046 199.162 1.86557 202.431 1.83852 204.929C1.31633 205.291 1.34767 208.785 1.81258 207.519C1.86336 207.375 1.81467 205.431 1.83852 204.929C2.35087 207.122 2.41648 210.962 1.93771 215.203C1.71331 217.188 1.45167 215.311 1.54739 221.342C1.59059 224.078 1.95015 223.021 2.04818 225.436C2.27184 230.954 1.93643 238.124 1.98928 243.812C2.00847 245.877 2.20529 243.866 2.22518 245.277C2.27859 249.021 2.13092 252.323 2.20656 256.084C2.21367 256.425 2.4197 255.592 2.42232 256.762C2.44625 265.627 2.31429 273.347 2.31063 282.603C2.30896 287.076 2.42259 295.071 2.39974 299.705C2.36136 307.734 2.06176 317.613 2.13454 324.472C2.18113 328.946 2.3872 327.965 2.52761 329.882C2.79977 333.581 2.31227 340.129 2.23678 341.011C2.23428 341.038 2.1857 337.188 2.07992 339.242C1.8595 340.436 2.23582 340.967 2.23678 341.011C2.18801 341.59 2.14123 349.28 2.18062 350.807C2.20215 351.637 2.39739 351.173 2.40493 351.606C2.57965 361.889 2.62927 372.191 2.53798 382.621C2.53404 382.805 2.31565 382.528 2.3091 382.96C2.212 388.998 2.47916 392.865 2.63778 397.845C2.79632 402.824 2.74322 406.773 2.36831 409.72C2.41551 413.477 2.24976 418.867 2.14919 421.969C2.04862 425.071 2.47373 425.504 2.48214 425.777C2.75113 434.289 2.5078 439.209 2.46993 448.04C2.46052 450.15 2.4714 453.302 2.49046 456.493L2.35116 455.821C2.97933 457.249 3.61299 458.685 4.20425 460.021L3.92529 459.577C4.91519 460.702 5.83122 461.741 6.58946 462.599C6.62286 462.637 6.65606 462.675 6.68905 462.712L6.47807 462.506C7.70512 463.499 8.70353 464.338 9.6642 465.145L8.54616 464.743C10.0759 464.757 11.5328 464.77 13.326 464.736C13.7738 464.727 13.3214 464.538 13.4581 464.531C17.1526 464.304 15.3771 464.767 16.1398 464.85C18.9053 465.15 20.6139 465.31 25.3452 465.169C26.4364 465.137 29.6153 464.47 31.6045 464.431C34.1909 464.382 33.2148 464.621 35.9229 464.563C36.1546 464.558 36.1064 464.411 37.7778 464.417C45.5362 464.446 53.9948 464.531 62.0573 464.517C63.1586 464.515 61.7467 464.281 63.3379 464.275C70.8044 464.248 78.9881 464.256 86.2621 464.366C88.0526 464.393 86.9302 464.557 87.3188 464.606C89.7049 464.9 93.0888 464.473 93.6471 464.464C106.965 464.259 117.158 464.646 130.732 464.462C131.471 464.451 137.159 463.993 139.697 464.386C139.87 464.412 142.381 464.814 144.601 464.539C144.739 464.522 143.174 464.315 145.904 464.336C148.634 464.357 153.028 464.219 156.781 464.446C157.969 464.518 160.777 464.918 164.321 464.599C164.552 464.577 170.023 463.854 171.975 464.353C172.292 464.435 171.961 464.962 176.19 464.692C176.999 464.639 175.532 464.522 177.661 464.448C180.923 464.335 185.245 464.476 189.255 464.241C189.954 464.2 192.931 463.842 195.319 464.113C195.693 464.156 194.982 464.332 196.243 464.352C202.24 464.446 208.519 464.328 214.608 464.45C216.765 464.493 215.662 464.778 217.91 464.854C220.159 464.93 224.688 465.004 227.041 464.874C229.394 464.743 226.823 464.29 230.348 464.254C231.165 464.245 231.981 464.238 232.797 464.232L230.544 466.759C228.833 452.057 230.002 437.225 233.946 422.948C234.595 420.716 233.873 422.515 234.89 419.241C237.943 406.913 251.034 387.973 261.406 383.026C269.188 378.773 259.666 384.495 265.574 381.296C268.473 379.797 271.537 378.04 272.285 377.753C279.479 374.975 284.885 374.295 291.678 373.667C293.111 373.554 291.686 373.433 292.915 373.347C296.996 373.069 301.351 373.235 305.286 373.503C307.09 373.631 306.755 373.441 308.342 373.604C312.181 374.017 315.557 374.588 319.247 375.43C319.586 375.508 317.243 375.274 320.091 375.82C320.441 375.888 320.799 375.961 321.163 376.036L318.943 377.854C318.971 373.5 319.089 368.305 318.945 363.463C318.898 361.909 318.525 361.848 318.783 358.507C318.836 357.806 319.285 358.7 318.897 354.809C318.833 354.154 318.311 347.617 318.647 344.409C318.736 343.563 319.103 341.402 319.045 339.533C319.036 339.28 318.835 340.295 318.816 338.747C318.75 333.289 318.772 327.569 318.709 321.961C318.692 320.464 318.484 322.694 318.466 320.462C318.413 314.325 318.466 306.663 318.531 300.662C318.555 298.45 318.727 299.979 318.746 299.818C319.05 297.229 318.639 295.698 318.615 294.839C318.472 289.495 318.665 285.426 318.614 280.5C318.6 279.141 318.405 280.105 318.387 279.834C318.217 277.028 318.568 279.118 318.607 277.342C318.717 272.365 318.701 266.818 318.676 261.785C318.666 259.936 318.439 262.014 318.434 260.355C318.394 250.536 318.416 240.329 318.541 230.747C318.565 228.942 318.74 230.077 318.78 229.701C319.059 227.11 318.678 223.311 318.642 222.437C318.476 218.463 318.631 216.919 318.602 213.41C318.458 196.265 318.561 175.096 318.624 158.913C318.705 137.824 318.872 121.46 318.828 101.35C318.826 100.072 318.593 101.36 318.588 100.259C318.532 86.0334 318.623 72.0289 318.556 57.7752C318.551 56.6056 318.33 58.2916 318.315 56.4142C318.281 52.5635 318.293 47.6855 318.364 43.7921C318.398 41.8931 318.587 44.4403 318.617 42.5287C318.688 38.0779 318.704 33.3069 318.668 28.7351C318.653 26.7896 318.427 29.7249 318.425 27.1961C318.423 25.8853 318.421 24.5762 318.419 23.2686C318.416 20.5619 318.412 17.8613 318.411 15.1638L318.606 16.1089C317.54 13.6421 316.477 11.1774 315.416 8.71153L316.231 9.71551C314.463 8.46499 312.696 7.21288 310.929 5.95767L311.714 6.31914C309.718 5.80684 307.721 5.29187 305.721 4.77331L306.297 4.8451C300.078 4.80966 293.832 4.74731 287.522 4.6415C286.329 4.62145 285.281 4.16333 282.744 4.25118C282.553 4.37832 282.563 4.52788 282.48 4.66378C257.404 4.73698 232.583 4.57816 207.436 4.55361C206.376 4.55263 208.208 4.79536 206.156 4.7947C194.275 4.79111 182.739 4.85835 170.586 4.61708C169.381 4.59349 169.999 4.16645 166.446 4.23104C165.819 4.24282 160.468 4.29978 159.084 4.39248C158.896 4.40646 159.873 4.60578 158.148 4.61159C148.127 4.64186 137.625 4.59635 127.621 4.47457C126.006 4.45453 127.725 4.24227 126.576 4.22616C118.418 4.11348 109.545 4.27484 101.75 4.08211C96.5329 3.95235 98.4646 3.58543 95.6921 3.22427C95.2999 3.17331 92.0691 3.16524 91.902 2.9551C91.4731 2.4267 93.038 1.84811 92.3959 1.28488C92.2602 1.16357 87.9332 1.29423 90.4951 1.00107C90.674 0.981448 93.8111 0.88415 94.5838 0.784699C95.1217 0.715941 94.1523 0.502235 95.2499 0.414217C96.3474 0.326282 97.5534 0.505422 99.3731 0.40201C101.192 0.297318 100.392 0.0542033 104.025 0.0254245ZM1.69967 435.935C1.49551 438.807 2.24325 439.231 2.06435 436.125C2.05482 435.974 1.70968 435.787 1.69967 435.935ZM3.06453 92.3623C2.14525 92.0621 1.31462 91.8161 0.62092 91.6317L1.47066 90.9813C1.48013 93.1616 1.80047 94.1085 1.99142 92.1228C2.02929 91.7287 2.04902 91.3449 2.05485 90.9813L0.468365 92.1956C2.46226 92.7678 4.02945 92.6671 3.06453 92.3623ZM41.9428 91.7208C37.6117 92.5584 37.1292 93.7372 41.7254 92.3866C41.9917 92.3031 42.1967 91.6667 41.9428 91.7208ZM108.55 3.12142C108.51 3.11149 106.188 3.10182 106.132 3.11166C104.895 3.34914 109.539 3.36832 108.55 3.12142ZM73.6239 70.3824C72.699 71.4156 70.2336 74.4949 71.4912 73.3184C72.5245 72.4017 74.8152 69.117 73.6239 70.3824ZM124.898 466.395C124.943 466.406 126.608 466.416 126.575 466.353C126.462 466.151 124.145 466.208 124.898 466.395ZM90.0973 7.89C90.105 17.6568 88.7862 23.3301 89.2719 12.8928C89.33 10.9696 89.4567 17.033 89.5944 14.5973C89.8411 10.0172 89.2651 7.29741 89.3889 2.5978C89.4235 1.76531 90.117 7.36609 90.0987 7.90709C90.0982 7.90141 90.0977 7.89571 90.0973 7.89ZM0.80154 437.589C0.791652 437.646 0.782277 439.951 0.792079 440.007C1.02946 441.255 1.04849 436.611 0.80154 437.589ZM222.056 466.858C222.183 466.879 227.532 466.898 227.707 466.879C230.497 466.491 219.683 466.45 222.056 466.858ZM0.254361 282.356C0.0155501 279.841 -0.0125673 276.833 0.28732 274.828C0.271401 277.327 0.269055 279.843 0.254361 282.356Z" fill="#0D3B66"/>
</svg>

