<svg class='main-bg' width="325" height="469" viewBox="0 0 325 469" fill="none" xmlns="http://www.w3.org/2000/svg">
<path class='main-bg' d="M307.691 2.28516H91.0803C94.727 93.2945 33.3405 99.1932 2.19141 90.7664V456.278L4.01477 460.492L6.74981 463.652L9.94069 466.285H234.191C230.025 429.982 241.791 361.429 322.191 377.639V23.0537V14.9489L319.001 7.5519L313.691 3.80481L307.691 2.28516Z" fill=""/>
<path  d="M70.7507 70.2484C71.8028 68.9565 73.458 67.1132 74.5749 65.4675C79.202 58.3698 80.5655 55.4421 83.2373 48.1447C88.4107 37.4323 88.9792 2.50645 89.7206 2.33964C89.7206 2.33964 89.7206 2.33964 89.7206 2.33964C89.7339 2.33913 89.7474 2.34206 89.7613 2.34852C90.0294 2.47116 90.4081 5.50516 90.7022 5.93764C90.9944 6.36728 92.9063 6.03533 93.0226 10.2546C93.3597 16.5976 91.4743 31.4854 90.7107 34.7398C90.3286 37.0215 89.958 39.7436 89.2606 42.6433C86.9257 51.8042 84.9912 56.4257 81.217 64.1736C79.2943 67.0109 77.1347 69.744 74.7756 72.2551C72.0987 75.8808 66.8562 80.2237 64.6612 81.815C62.9048 83.1583 61.9238 84.0712 59.9599 85.3035C57.733 86.689 54.1385 88.4359 49.7297 90.153C42.4754 92.8125 41.1453 93.3948 36.574 94.336C31.7985 95.2566 24.2579 95.4682 18.1096 95.2015C17.3278 95.2079 16.551 95.2039 15.7799 95.1901C16.3175 95.3647 16.8612 95.5346 17.4108 95.6994C14.299 95.5194 12.9882 95.1027 10.1528 94.6706C6.8534 94.1327 5.11478 93.9873 2.87598 93.436C2.46334 93.332 2.02418 93.2072 1.56884 93.0677L4.57542 90.7664C4.52216 92.3595 4.40783 94.2336 4.41729 96.0441C4.43416 99.4649 4.71672 98.7169 4.76958 100.558C4.79012 101.292 4.94605 114.872 4.94829 115.638C4.95944 121.464 4.57269 121.971 4.53887 126.617C4.44663 139.503 4.75914 152.731 4.87725 164.65C4.93009 169.973 4.90761 175.526 4.84576 180.833C3.85594 172.474 3.08562 190.973 4.63445 184.054C4.41411 189.959 4.83222 194.145 4.76153 199.743C4.71541 203.363 4.50065 205.869 4.50628 211.039C4.51763 220.212 5.12807 230.245 4.02471 232.883C4.21922 243.651 3.81898 252.978 4.79302 256.858C4.85252 259.635 4.27235 266.751 4.19353 269.865C4.11929 272.811 3.85732 295.409 3.8427 299.106C3.82808 302.803 3.81218 309.275 3.89763 312.389C4.00337 316.301 5.01352 319.034 3.83245 325.999C3.92802 334.096 3.89422 336.982 3.75701 344.513C3.7322 345.876 3.55685 346.03 3.55669 346.827C3.55669 348.468 3.68627 351.26 3.70208 354.189C3.72795 359.006 3.359 361.755 3.92254 361.218C4.01702 364.393 4.1115 367.569 4.20598 370.745C4.09722 371.859 3.98845 372.973 3.87969 374.087C3.99822 375.785 4.11675 377.483 4.23528 379.181C3.4198 377.186 3.90103 389.136 4.36895 385.256C4.20025 391.412 4.03154 397.568 3.86284 403.724C2.93603 402.865 3.75589 417.241 4.25982 416.03C4.25908 416.735 4.25835 417.439 4.25762 418.144C4.01128 424.311 4.21276 429.974 4.04741 437.49C3.88207 445.006 3.79183 444.301 3.36553 446.587C3.38994 448.355 3.41436 450.124 3.43877 451.893C3.66611 453.698 3.77266 455.09 3.80341 456.278L3.67082 455.638C4.40712 457.226 4.81724 458.473 5.29827 459.936L5.07223 459.577C5.75437 460.527 6.51295 461.584 7.58695 462.927L7.45453 462.798C8.31839 463.569 9.34493 464.445 10.6153 465.468L9.94069 465.225C11.6691 465.204 13.7136 465.135 16.1805 464.996C21.2581 465.731 33.7746 465.345 42.0737 465.122C43.0393 465.096 43.0558 464.954 44.342 464.91C47.4864 464.804 55.51 464.987 55.2356 464.527C58.0131 464.66 60.7906 464.793 63.568 464.926C65.8383 464.843 68.1085 464.759 70.3787 464.676C70.3672 464.532 70.3557 464.389 70.3443 464.245C74.9157 464.734 82.0989 464.546 85.6424 464.663C86.3474 464.687 86.4998 464.885 88.6917 464.939C91.2535 465.003 96.0273 464.944 99.08 465.006C100.267 464.787 101.454 464.568 102.64 464.348C108.099 464.229 110.018 464.808 113.224 464.853C113.801 464.861 124.331 464.819 124.898 464.807C129.543 464.709 128.227 464.216 141.661 464.322C144.053 464.341 145.988 464.511 148.15 464.518C151.97 464.531 163.479 464.143 164.384 463.786C169.017 464.233 181.412 464.05 185.063 464.18C186.165 464.22 186.414 464.505 189.801 464.565C192.547 464.615 199.618 464.387 203.101 464.425C206.797 464.466 208.117 464.706 209.773 464.723C211.338 464.739 212.781 464.545 214.913 464.546C221.569 464.553 227.597 464.864 232.858 464.87C233.306 464.871 233.75 464.869 234.191 464.866L232.781 466.447C231.93 459.393 231.33 452.933 231.396 446.84C231.515 445.253 231.751 443.653 231.904 441.991C233.574 421.466 242.325 397.157 260.296 384.812C267.973 377.646 292.34 373.955 285.705 374.019C289.054 372.283 313.809 373.384 318.261 374.89C319.773 375.149 321.209 375.394 322.594 375.64L320.152 377.639C320.085 374.926 319.98 372.502 319.978 370.092C319.968 359.216 320.135 351.557 319.933 338.318C319.88 334.899 319.605 331.235 319.608 329.211C319.612 326.772 319.879 324.147 319.896 320.987C319.934 313.456 319.846 299.42 319.892 292.194C319.901 290.875 320.135 290.411 320.208 288.525C320.494 281.177 320.469 272.941 319.722 274.398C320.146 264.98 319.76 256.268 319.736 247.54C319.688 229.086 319.862 195.47 319.548 179.393C319.35 169.256 319.015 169.516 319.304 154.591C319.368 151.278 319.455 147.98 319.531 143.962C319.711 134.543 320.33 125.902 319.584 118.723C319.778 108.262 319.641 99.931 320.278 92.1695C320.125 91.2545 319.972 90.3396 319.819 89.4246C319.816 88.1421 319.812 86.8596 319.808 85.5771C319.954 85.177 320.1 84.7769 320.246 84.3769C320.285 75.1893 319.685 63.533 319.69 55.756C319.693 48.6804 319.764 35.5552 319.859 23.0537C319.88 20.298 319.902 17.5726 319.925 14.9489L320.11 15.8468C319.01 13.2347 317.958 10.7313 316.989 8.41958L317.737 9.34162C315.807 7.94905 314.031 6.66487 312.471 5.53394L313.172 5.85646C311.87 5.50889 310.694 5.19332 309.669 4.91639C308.72 4.65989 307.904 4.44664 307.19 4.26426L307.691 4.32676C303.508 4.3179 302.775 4.462 299.579 3.91594C298.111 3.96062 296.643 4.0053 295.175 4.04998C294.256 4.1906 293.337 4.33123 292.418 4.47185C283.997 4.47748 274.008 4.25905 265.985 4.26128C251.366 4.26578 229.414 4.65281 214.733 4.39861C211.052 4.33451 206.451 4.04451 202.846 4.04778C197.6 4.05228 196.324 4.53353 189.667 4.54253C178.192 4.55715 156.823 3.99808 145.977 4.04082C142.756 4.0532 141.253 4.23227 139.029 4.25139C129.702 4.33351 122.045 4.31892 113.101 4.59563C103.499 4.13445 104.328 3.53918 101.352 2.93852C99.0968 2.48518 92.181 1.43456 91.1993 1.03752C90.5097 0.758572 93.0844 0.399741 92.1181 0.0926921C103.623 -0.152514 108.457 0.117426 117.799 0.549358C135.051 0.532146 152.304 0.514934 169.556 0.497722C171.126 0.665325 172.696 0.832928 174.265 1.00053C174.265 1.0009 174.265 1.00126 174.265 1.00163C180.891 1.19505 183.699 0.763424 187.272 0.665447C216.339 -0.131653 269.319 0.278626 307.691 0.484837L308.133 0.539943C310.176 1.06884 312.175 1.58631 314.126 2.09054L314.711 2.36002C316.528 3.65538 318.294 4.91415 320.003 6.13107L320.399 6.40787L320.597 6.86307C321.423 8.79914 322.222 10.6694 322.991 12.4656C323.215 12.9888 323.476 13.594 323.768 14.269L323.908 14.9489C323.91 17.1063 323.92 19.9214 323.932 23.0537C323.973 34.0798 324.038 49.036 323.84 53.0685C323.77 54.5101 323.511 54.9112 323.5 56.4451C323.654 70.1487 323.807 83.8524 323.961 97.556C323.559 125.736 323.891 154.869 323.953 183.264C324.095 248.553 324.264 313.288 324.273 377.639L324.283 380.174L321.78 379.68C310.759 377.467 299.505 376.507 288.578 377.989C274.305 379.381 258.024 388.864 250.273 400.453C246.975 405.156 245.29 407.063 242.544 414.212C242.41 414.243 242.276 414.275 242.142 414.308C239.803 420.594 238.834 424.796 237.413 432.18C235.944 438.375 235.127 455.202 235.755 460.818C235.941 463.682 235.647 462.676 235.915 465.353C235.94 465.583 235.967 465.825 235.998 466.078L236.238 468.095L234.191 468.103C229.212 468.133 219.799 468.393 213.609 468.393C207.703 468.393 197.747 468.152 193.206 468.187C176.853 468.311 159.041 468.668 141.615 468.572C136.801 468.545 130.61 468.274 129.102 468.282C126.157 468.297 125.28 468.561 123.302 468.594C113.255 468.765 97.5928 468.453 87.7442 468.44C62.3505 468.408 35.7639 468.473 9.94069 468.478L9.16139 468.481L8.54484 467.977C7.47929 467.097 6.41554 466.22 5.35383 465.343L5.09151 465.087C4.17818 464.032 3.26668 462.978 2.35723 461.926L2.00291 461.362C1.39425 459.954 0.78722 458.549 0.182031 457.148L0.00194573 456.278C0.00387645 453.824 0.00661254 451.379 0.0102947 448.947C0.0406606 428.759 -0.00565147 395.212 0.192302 376.573C0.235045 372.554 0.523357 373.626 0.523357 370.251C0.523295 366.509 0.328531 364.482 0.312786 362.734C0.202549 350.629 0.00566983 323.909 0.204753 312.481C0.242977 310.304 0.46888 308.725 0.468059 307.422C0.468059 306.762 0.313896 305.272 0.298137 303.201C0.158658 284.915 0.248566 271.583 0.301433 253.666C0.401532 219.35 0.114729 179.589 0.269939 143.541C0.303684 135.686 0.750513 130.3 0.746014 129.196C0.737001 126.772 0.436461 125.221 0.362224 120.312C0.230188 111.481 0.263498 100.992 0.298003 90.7664L0.288349 88.3002L2.68586 88.9387C10.8437 91.1749 19.2039 91.9039 26.1647 91.5888C33.6658 91.381 43.7552 88.9666 50.3328 85.9349C55.9028 84.0403 66.9219 75.8697 68.3268 73.6144C69.3232 72.4377 69.5828 71.6832 70.7507 70.2484ZM4.25542 216.546C3.73575 215.472 4.16763 226.758 4.44658 222.524C4.50939 221.57 4.39032 216.823 4.25542 216.546ZM238.835 415.072C238.659 415.117 238.483 415.163 238.307 415.209C237.832 416.644 237.397 418.09 236.998 419.543C237.34 418.764 237.693 417.99 238.057 417.223C238.306 416.503 238.566 415.786 238.835 415.072Z" fill="url(#paint0_linear_280_3375)"/>
<defs>
<linearGradient class='card-border' id="paint0_linear_280_3375" x1="162.918" y1="3.04687" x2="162.918" y2="467.047" gradientUnits="userSpaceOnUse">
<stop offset="0.446651" class='color1' stop-color="#000"/>
<stop offset="0.5" class='color2' stop-color="#000"/>
</linearGradient>
</defs>
</svg>
