<svg width="130" height="258" viewBox="0 0 130 258" fill="none" xmlns="http://www.w3.org/2000/svg">
<mask id="mask0_308_3546" style="mask-type:luminance" maskUnits="userSpaceOnUse" x="14" y="17" width="32" height="44">
<path d="M40.7487 17H19C16.2386 17 14 19.2386 14 22V55.2824C14 58.0438 16.2386 60.2824 19 60.2824H40.7487C43.5102 60.2824 45.7487 58.0438 45.7487 55.2824V22C45.7487 19.2386 43.5102 17 40.7487 17Z" fill="white"/>
</mask>
<g mask="url(#mask0_308_3546)">
<mask id="mask1_308_3546" style="mask-type:luminance" maskUnits="userSpaceOnUse" x="14" y="16" width="32" height="44">
<path d="M45.7487 21.5137C45.7487 18.7522 43.5102 16.5137 40.7487 16.5137H19C16.2386 16.5137 14 18.7522 14 21.5137V54.796C14 57.5575 16.2386 59.796 19 59.796H40.7487C43.5102 59.796 45.7487 57.5575 45.7487 54.796V21.5137Z" fill="white"/>
</mask>
<g mask="url(#mask1_308_3546)">
<path d="M45.5346 21.707C45.5346 18.9456 43.296 16.707 40.5346 16.707H19.2148C16.4534 16.707 14.2148 18.9456 14.2148 21.707V54.6064C14.2148 57.3678 16.4534 59.6064 19.2148 59.6064H40.5346C43.296 59.6064 45.5346 57.3678 45.5346 54.6064V21.707Z" fill="white" stroke="black"/>
<path d="M44.8959 22.0689C44.8959 19.6362 42.9238 17.6641 40.491 17.6641H19.2681C16.8354 17.6641 14.8633 19.6362 14.8633 22.0689C14.8633 24.5016 16.8354 26.4737 19.2681 26.4737H40.491C42.9238 26.4737 44.8959 24.5016 44.8959 22.0689Z" class='mini-header' fill="#EE964B"/>
<path d="M30.8024 52.3793C30.269 52.3793 29.8957 52.262 29.6824 52.0273C29.4904 51.814 29.3944 51.4513 29.3944 50.9393V31.4193C29.3944 30.886 29.501 30.5233 29.7144 30.3313C29.9277 30.118 30.301 30.0113 30.8344 30.0113C31.3464 30.0113 31.6984 30.1287 31.8904 30.3633C32.1037 30.5767 32.2104 30.95 32.2104 31.4833V50.9713C32.2104 51.4833 32.1037 51.846 31.8904 52.0593C31.6984 52.2727 31.3357 52.3793 30.8024 52.3793ZM25.0424 38.0433C24.637 38.3847 24.2957 38.5553 24.0184 38.5553C23.741 38.534 23.4317 38.3313 23.0904 37.9473C22.749 37.5633 22.589 37.222 22.6104 36.9233C22.6317 36.6033 22.8557 36.262 23.2824 35.8993L29.4584 30.5233C29.821 30.182 30.1517 30.0327 30.4504 30.0753C30.749 30.0967 31.069 30.2887 31.4104 30.6513C31.7517 31.014 31.9117 31.3553 31.8904 31.6753C31.869 31.974 31.6344 32.3153 31.1864 32.6993L25.0424 38.0433Z" fill="#737373"/>
</g>
</g>
<mask id="mask2_308_3546" style="mask-type:luminance" maskUnits="userSpaceOnUse" x="14" y="86" width="32" height="44">
<path d="M40.7487 86H19C16.2386 86 14 88.2386 14 91V124.282C14 127.044 16.2386 129.282 19 129.282H40.7487C43.5102 129.282 45.7487 127.044 45.7487 124.282V91C45.7487 88.2386 43.5102 86 40.7487 86Z" fill="white"/>
</mask>
<g mask="url(#mask2_308_3546)">
<mask id="mask3_308_3546" style="mask-type:luminance" maskUnits="userSpaceOnUse" x="14" y="85" width="32" height="44">
<path d="M45.7487 90.5137C45.7487 87.7522 43.5102 85.5137 40.7487 85.5137H19C16.2386 85.5137 14 87.7522 14 90.5137V123.796C14 126.557 16.2386 128.796 19 128.796H40.7487C43.5102 128.796 45.7487 126.557 45.7487 123.796V90.5137Z" fill="white"/>
</mask>
<g mask="url(#mask3_308_3546)">
<path d="M45.5346 90.707C45.5346 87.9456 43.296 85.707 40.5346 85.707H19.2148C16.4534 85.707 14.2148 87.9456 14.2148 90.707V123.606C14.2148 126.368 16.4534 128.606 19.2148 128.606H40.5346C43.296 128.606 45.5346 126.368 45.5346 123.606V90.707Z" fill="white" stroke="black"/>
<path d="M44.8959 91.0689C44.8959 88.6362 42.9238 86.6641 40.491 86.6641H19.2681C16.8354 86.6641 14.8633 88.6362 14.8633 91.0689C14.8633 93.5016 16.8354 95.4737 19.2681 95.4737H40.491C42.9238 95.4737 44.8959 93.5016 44.8959 91.0689Z" class='mini-header' fill="#EE964B"/>
<path d="M23.3175 120.096C22.9548 120.096 22.6242 119.947 22.3255 119.648C22.0482 119.328 21.9095 118.976 21.9095 118.592C21.9095 118.293 21.9095 117.995 21.9095 117.696C21.9308 117.397 22.0055 117.099 22.1335 116.8C22.2615 116.501 22.5068 116.224 22.8695 115.968C24.0428 115.115 25.1842 114.325 26.2935 113.6C27.4242 112.853 28.4695 112.139 29.4295 111.456C30.4108 110.773 31.2642 110.091 31.9895 109.408C32.7148 108.725 33.2802 108.021 33.6855 107.296C34.1122 106.549 34.3255 105.739 34.3255 104.864C34.3255 103.989 34.1442 103.243 33.7815 102.624C33.4402 101.984 32.9175 101.493 32.2135 101.152C31.5095 100.789 30.6348 100.608 29.5895 100.608C28.8215 100.608 28.1388 100.725 27.5415 100.96C26.9442 101.173 26.4428 101.493 26.0375 101.92C25.6322 102.347 25.3228 102.869 25.1095 103.488C24.8962 104.107 24.7895 104.811 24.7895 105.6C24.7895 105.92 24.7575 106.187 24.6935 106.4C24.6508 106.613 24.5228 106.773 24.3095 106.88C24.1175 106.987 23.7868 107.04 23.3175 107.04C22.8482 107.04 22.5068 106.965 22.2935 106.816C22.1015 106.667 21.9842 106.464 21.9415 106.208C21.9202 105.952 21.9095 105.664 21.9095 105.344C21.9095 104.235 22.0802 103.221 22.4215 102.304C22.7628 101.365 23.2642 100.555 23.9255 99.872C24.5868 99.1893 25.3868 98.6667 26.3255 98.304C27.2642 97.92 28.3415 97.728 29.5575 97.728C31.1148 97.728 32.4588 98.016 33.5895 98.592C34.7415 99.168 35.6375 100.011 36.2775 101.12C36.9175 102.208 37.2375 103.552 37.2375 105.152C37.2375 105.877 37.1308 106.571 36.9175 107.232C36.7042 107.893 36.3842 108.533 35.9575 109.152C35.5522 109.749 35.0615 110.336 34.4855 110.912C33.9308 111.467 33.2908 112.021 32.5655 112.576C31.8615 113.131 31.0935 113.696 30.2615 114.272C29.4295 114.827 28.5548 115.392 27.6375 115.968L25.6215 117.184H36.7575C37.0562 117.184 37.3122 117.216 37.5255 117.28C37.7388 117.344 37.8988 117.483 38.0055 117.696C38.1335 117.909 38.1975 118.229 38.1975 118.656C38.1975 119.061 38.1335 119.371 38.0055 119.584C37.8775 119.797 37.7068 119.936 37.4935 120C37.2802 120.064 37.0135 120.096 36.6935 120.096H23.3175Z" fill="#737373"/>
</g>
</g>
<mask id="mask4_308_3546" style="mask-type:luminance" maskUnits="userSpaceOnUse" x="54" y="86" width="32" height="44">
<path d="M80.7487 86H59C56.2386 86 54 88.2386 54 91V124.282C54 127.044 56.2386 129.282 59 129.282H80.7487C83.5102 129.282 85.7487 127.044 85.7487 124.282V91C85.7487 88.2386 83.5102 86 80.7487 86Z" fill="white"/>
</mask>
<g mask="url(#mask4_308_3546)">
<mask id="mask5_308_3546" style="mask-type:luminance" maskUnits="userSpaceOnUse" x="54" y="85" width="32" height="44">
<path d="M85.7487 90.5137C85.7487 87.7522 83.5102 85.5137 80.7487 85.5137H59C56.2386 85.5137 54 87.7522 54 90.5137V123.796C54 126.557 56.2386 128.796 59 128.796H80.7487C83.5102 128.796 85.7487 126.557 85.7487 123.796V90.5137Z" fill="white"/>
</mask>
<g mask="url(#mask5_308_3546)">
<path d="M85.5346 90.707C85.5346 87.9456 83.296 85.707 80.5346 85.707H59.2148C56.4534 85.707 54.2148 87.9456 54.2148 90.707V123.606C54.2148 126.368 56.4534 128.606 59.2148 128.606H80.5346C83.296 128.606 85.5346 126.368 85.5346 123.606V90.707Z" fill="white" stroke="black"/>
<path d="M84.8959 91.0689C84.8959 88.6362 82.9238 86.6641 80.491 86.6641H59.2681C56.8354 86.6641 54.8633 88.6362 54.8633 91.0689C54.8633 93.5016 56.8354 95.4737 59.2681 95.4737H80.491C82.9238 95.4737 84.8959 93.5016 84.8959 91.0689Z" class='mini-header' fill="#EE964B"/>
</g>
</g>
<mask id="mask6_308_3546" style="mask-type:luminance" maskUnits="userSpaceOnUse" x="14" y="155" width="32" height="44">
<path d="M40.7487 155H19C16.2386 155 14 157.239 14 160V193.282C14 196.044 16.2386 198.282 19 198.282H40.7487C43.5102 198.282 45.7487 196.044 45.7487 193.282V160C45.7487 157.239 43.5102 155 40.7487 155Z" fill="white"/>
</mask>
<g mask="url(#mask6_308_3546)">
<mask id="mask7_308_3546" style="mask-type:luminance" maskUnits="userSpaceOnUse" x="14" y="154" width="32" height="44">
<path d="M45.7487 159.514C45.7487 156.752 43.5102 154.514 40.7487 154.514H19C16.2386 154.514 14 156.752 14 159.514V192.796C14 195.557 16.2386 197.796 19 197.796H40.7487C43.5102 197.796 45.7487 195.557 45.7487 192.796V159.514Z" fill="white"/>
</mask>
<g mask="url(#mask7_308_3546)">
<path d="M45.5346 159.707C45.5346 156.946 43.296 154.707 40.5346 154.707H19.2148C16.4534 154.707 14.2148 156.946 14.2148 159.707V192.606C14.2148 195.368 16.4534 197.606 19.2148 197.606H40.5346C43.296 197.606 45.5346 195.368 45.5346 192.606V159.707Z" fill="white" stroke="black"/>
<path d="M44.8959 160.069C44.8959 157.636 42.9238 155.664 40.491 155.664H19.2681C16.8354 155.664 14.8633 157.636 14.8633 160.069C14.8633 162.502 16.8354 164.474 19.2681 164.474H40.491C42.9238 164.474 44.8959 162.502 44.8959 160.069Z" class='mini-header' fill="#EE964B"/>
<path d="M29.4854 192.448C28.376 192.448 27.352 192.288 26.4134 191.968C25.4747 191.627 24.6427 191.168 23.9174 190.592C23.2134 189.995 22.6587 189.323 22.2534 188.576C21.848 187.829 21.6134 187.051 21.5494 186.24C21.5494 185.493 22.0507 185.12 23.0534 185.12C23.416 185.12 23.6827 185.163 23.8534 185.248C24.024 185.333 24.152 185.483 24.2374 185.696C24.3227 185.888 24.408 186.165 24.4934 186.528C24.728 187.168 25.08 187.733 25.5494 188.224C26.0187 188.693 26.584 189.067 27.2454 189.344C27.928 189.6 28.6854 189.728 29.5174 189.728C30.52 189.728 31.3947 189.547 32.1414 189.184C32.9094 188.821 33.5067 188.331 33.9334 187.712C34.36 187.072 34.5734 186.357 34.5734 185.568C34.5734 184.8 34.36 184.117 33.9334 183.52C33.528 182.923 32.9627 182.464 32.2374 182.144C31.5334 181.824 30.7227 181.664 29.8054 181.664C29.4427 181.664 29.1334 181.632 28.8774 181.568C28.6214 181.504 28.4294 181.376 28.3014 181.184C28.1947 180.971 28.1414 180.651 28.1414 180.224C28.1414 179.819 28.1947 179.52 28.3014 179.328C28.4294 179.136 28.6214 179.008 28.8774 178.944C29.1334 178.88 29.4534 178.848 29.8374 178.848C30.6907 178.848 31.4054 178.72 31.9814 178.464C32.5787 178.187 33.0267 177.835 33.3254 177.408C33.624 176.96 33.7734 176.48 33.7734 175.968C33.7734 175.264 33.6027 174.645 33.2614 174.112C32.9414 173.557 32.472 173.131 31.8534 172.832C31.256 172.533 30.5627 172.384 29.7734 172.384C29.0907 172.384 28.4827 172.48 27.9494 172.672C27.4374 172.843 26.968 173.099 26.5414 173.44C26.136 173.781 25.752 174.219 25.3894 174.752C25.0907 175.221 24.8027 175.499 24.5254 175.584C24.248 175.648 23.8534 175.531 23.3414 175.232C23 174.997 22.776 174.763 22.6694 174.528C22.584 174.293 22.616 174.005 22.7654 173.664C22.872 173.451 23.032 173.184 23.2454 172.864C23.4587 172.523 23.7467 172.171 24.1094 171.808C24.472 171.445 24.9094 171.104 25.4214 170.784C25.9334 170.464 26.5307 170.208 27.2134 170.016C27.9174 169.803 28.728 169.696 29.6454 169.696C30.7334 169.696 31.7147 169.867 32.5894 170.208C33.4854 170.528 34.232 170.976 34.8294 171.552C35.4267 172.128 35.8854 172.789 36.2054 173.536C36.5254 174.261 36.6854 175.029 36.6854 175.84C36.6854 176.523 36.5467 177.163 36.2694 177.76C36.0134 178.357 35.6614 178.869 35.2134 179.296C34.7654 179.701 34.3067 180.021 33.8374 180.256C34.4134 180.448 34.9254 180.747 35.3734 181.152C35.8214 181.536 36.1947 181.973 36.4934 182.464C36.8134 182.955 37.048 183.467 37.1974 184C37.368 184.533 37.4534 185.035 37.4534 185.504C37.4534 186.827 37.112 188.011 36.4294 189.056C35.768 190.101 34.84 190.933 33.6454 191.552C32.4507 192.149 31.064 192.448 29.4854 192.448Z" fill="#737373"/>
</g>
</g>
<mask id="mask8_308_3546" style="mask-type:luminance" maskUnits="userSpaceOnUse" x="94" y="155" width="32" height="44">
<path d="M120.749 155H99C96.2386 155 94 157.239 94 160V193.282C94 196.044 96.2386 198.282 99 198.282H120.749C123.51 198.282 125.749 196.044 125.749 193.282V160C125.749 157.239 123.51 155 120.749 155Z" fill="white"/>
</mask>
<g mask="url(#mask8_308_3546)">
<mask id="mask9_308_3546" style="mask-type:luminance" maskUnits="userSpaceOnUse" x="94" y="154" width="32" height="44">
<path d="M125.749 159.514C125.749 156.752 123.51 154.514 120.749 154.514H99C96.2386 154.514 94 156.752 94 159.514V192.796C94 195.557 96.2386 197.796 99 197.796H120.749C123.51 197.796 125.749 195.557 125.749 192.796V159.514Z" fill="white"/>
</mask>
<g mask="url(#mask9_308_3546)">
<path d="M125.535 159.707C125.535 156.946 123.296 154.707 120.535 154.707H99.2148C96.4534 154.707 94.2148 156.946 94.2148 159.707V192.606C94.2148 195.368 96.4534 197.606 99.2148 197.606H120.535C123.296 197.606 125.535 195.368 125.535 192.606V159.707Z" fill="white" stroke="black"/>
<path d="M124.896 160.069C124.896 157.636 122.924 155.664 120.491 155.664H99.2681C96.8354 155.664 94.8633 157.636 94.8633 160.069C94.8633 162.502 96.8354 164.474 99.2681 164.474H120.491C122.924 164.474 124.896 162.502 124.896 160.069Z" class='mini-header' fill="#EE964B"/>
</g>
</g>
<mask id="mask10_308_3546" style="mask-type:luminance" maskUnits="userSpaceOnUse" x="54" y="155" width="32" height="44">
<path d="M80.7487 155H59C56.2386 155 54 157.239 54 160V193.282C54 196.044 56.2386 198.282 59 198.282H80.7487C83.5102 198.282 85.7487 196.044 85.7487 193.282V160C85.7487 157.239 83.5102 155 80.7487 155Z" fill="white"/>
</mask>
<g mask="url(#mask10_308_3546)">
<mask id="mask11_308_3546" style="mask-type:luminance" maskUnits="userSpaceOnUse" x="54" y="154" width="32" height="44">
<path d="M85.7487 159.514C85.7487 156.752 83.5102 154.514 80.7487 154.514H59C56.2386 154.514 54 156.752 54 159.514V192.796C54 195.557 56.2386 197.796 59 197.796H80.7487C83.5102 197.796 85.7487 195.557 85.7487 192.796V159.514Z" fill="white"/>
</mask>
<g mask="url(#mask11_308_3546)">
<path d="M85.5346 159.707C85.5346 156.946 83.296 154.707 80.5346 154.707H59.2148C56.4534 154.707 54.2148 156.946 54.2148 159.707V192.606C54.2148 195.368 56.4534 197.606 59.2148 197.606H80.5346C83.296 197.606 85.5346 195.368 85.5346 192.606V159.707Z" fill="white" stroke="black"/>
<path d="M84.8959 160.069C84.8959 157.636 82.9238 155.664 80.491 155.664H59.2681C56.8354 155.664 54.8633 157.636 54.8633 160.069C54.8633 162.502 56.8354 164.474 59.2681 164.474H80.491C82.9238 164.474 84.8959 162.502 84.8959 160.069Z" class='mini-header' fill="#EE964B"/>
</g>
</g>
</svg>
