<svg width="130" height="258" viewBox="0 0 130 258" fill="none" xmlns="http://www.w3.org/2000/svg">
<mask id="mask0_308_4127" style="mask-type:luminance" maskUnits="userSpaceOnUse" x="0" y="7" width="39" height="57">
<path d="M33.497 7H5C2.23858 7 0 9.23858 0 12V58.28C0 61.0414 2.23857 63.28 4.99999 63.28H33.497C36.2584 63.28 38.497 61.0414 38.497 58.28V12C38.497 9.23858 36.2584 7 33.497 7Z" fill="white"/>
</mask>
<g mask="url(#mask0_308_4127)">
<mask id="mask1_308_4127" style="mask-type:luminance" maskUnits="userSpaceOnUse" x="0" y="6" width="39" height="57">
<path d="M38.497 11.3672C38.497 8.60577 36.2584 6.36719 33.497 6.36719H4.99999C2.23857 6.36719 0 8.60576 0 11.3672V57.6471C0 60.4086 2.23858 62.6471 5 62.6471H33.497C36.2584 62.6471 38.497 60.4086 38.497 57.6471V11.3672Z" fill="white"/>
</mask>
<g mask="url(#mask1_308_4127)">
<path d="M38.2385 11.6191C38.2385 8.85772 35.9999 6.61914 33.2385 6.61914H5.26172C2.50029 6.61914 0.261719 8.85772 0.261719 11.6191V57.401C0.261719 60.1625 2.50029 62.401 5.26172 62.401H33.2385C35.9999 62.401 38.2385 60.1625 38.2385 57.401V11.6191Z" fill="white" stroke="black"/>
<path d="M37.463 12.8633C37.463 10.1019 35.2244 7.86328 32.463 7.86328H6.04687C3.28545 7.86328 1.04688 10.1019 1.04688 12.8633V14.3185C1.04688 17.0799 3.28545 19.3185 6.04687 19.3185H32.463C35.2244 19.3185 37.463 17.0799 37.463 14.3185V12.8633Z" class='mini-header' fill="#EE964B"/>
<path d="M19.6722 43.5903C19.1389 43.5903 18.7656 43.4729 18.5522 43.2383C18.3602 43.0249 18.2642 42.6623 18.2642 42.1503V22.6303C18.2642 22.0969 18.3709 21.7343 18.5842 21.5423C18.7976 21.3289 19.1709 21.2223 19.7042 21.2223C20.2162 21.2223 20.5682 21.3396 20.7602 21.5743C20.9736 21.7876 21.0802 22.1609 21.0802 22.6943V42.1823C21.0802 42.6943 20.9736 43.0569 20.7602 43.2703C20.5682 43.4836 20.2056 43.5903 19.6722 43.5903ZM13.9122 29.2543C13.5069 29.5956 13.1656 29.7663 12.8882 29.7663C12.6109 29.7449 12.3016 29.5423 11.9602 29.1583C11.6189 28.7743 11.4589 28.4329 11.4802 28.1343C11.5016 27.8143 11.7256 27.4729 12.1522 27.1103L18.3282 21.7343C18.6909 21.3929 19.0216 21.2436 19.3202 21.2863C19.6189 21.3076 19.9389 21.4996 20.2802 21.8623C20.6216 22.2249 20.7816 22.5663 20.7602 22.8863C20.7389 23.1849 20.5042 23.5263 20.0562 23.9103L13.9122 29.2543Z" fill="#737373"/>
</g>
</g>
<mask id="mask2_308_4127" style="mask-type:luminance" maskUnits="userSpaceOnUse" x="0" y="96" width="39" height="57">
<path d="M33.497 96.7207H5C2.23858 96.7207 0 98.9593 0 101.721V148.001C0 150.762 2.23857 153.001 4.99999 153.001H33.497C36.2584 153.001 38.497 150.762 38.497 148.001V101.721C38.497 98.9593 36.2584 96.7207 33.497 96.7207Z" fill="white"/>
</mask>
<g mask="url(#mask2_308_4127)">
<mask id="mask3_308_4127" style="mask-type:luminance" maskUnits="userSpaceOnUse" x="0" y="96" width="39" height="57">
<path d="M38.497 101.088C38.497 98.3265 36.2584 96.0879 33.497 96.0879H4.99999C2.23857 96.0879 0 98.3265 0 101.088V147.368C0 150.129 2.23858 152.368 5 152.368H33.497C36.2584 152.368 38.497 150.129 38.497 147.368V101.088Z" fill="white"/>
</mask>
<g mask="url(#mask3_308_4127)">
<path d="M38.2385 101.34C38.2385 98.5784 35.9999 96.3398 33.2385 96.3398H5.26172C2.50029 96.3398 0.261719 98.5784 0.261719 101.34V147.122C0.261719 149.883 2.50029 152.122 5.26172 152.122H33.2385C35.9999 152.122 38.2385 149.883 38.2385 147.122V101.34Z" fill="white" stroke="black"/>
<path d="M37.463 102.584C37.463 99.8226 35.2244 97.584 32.463 97.584H6.04687C3.28545 97.584 1.04688 99.8226 1.04688 102.584V104.039C1.04688 106.801 3.28545 109.039 6.04687 109.039H32.463C35.2244 109.039 37.463 106.801 37.463 104.039V102.584Z" class='mini-header' fill="#EE964B"/>
<path d="M12.7204 131.717C12.3577 131.717 12.027 131.568 11.7284 131.269C11.451 130.949 11.3124 130.597 11.3124 130.213C11.3124 129.914 11.3124 129.616 11.3124 129.317C11.3337 129.018 11.4084 128.72 11.5364 128.421C11.6644 128.122 11.9097 127.845 12.2724 127.589C13.4457 126.736 14.587 125.946 15.6964 125.221C16.827 124.474 17.8724 123.76 18.8324 123.077C19.8137 122.394 20.667 121.712 21.3924 121.029C22.1177 120.346 22.683 119.642 23.0884 118.917C23.515 118.17 23.7284 117.36 23.7284 116.485C23.7284 115.61 23.547 114.864 23.1844 114.245C22.843 113.605 22.3204 113.114 21.6164 112.773C20.9124 112.41 20.0377 112.229 18.9924 112.229C18.2244 112.229 17.5417 112.346 16.9444 112.581C16.347 112.794 15.8457 113.114 15.4404 113.541C15.035 113.968 14.7257 114.49 14.5124 115.109C14.299 115.728 14.1924 116.432 14.1924 117.221C14.1924 117.541 14.1604 117.808 14.0964 118.021C14.0537 118.234 13.9257 118.394 13.7124 118.501C13.5204 118.608 13.1897 118.661 12.7204 118.661C12.251 118.661 11.9097 118.586 11.6964 118.437C11.5044 118.288 11.387 118.085 11.3444 117.829C11.323 117.573 11.3124 117.285 11.3124 116.965C11.3124 115.856 11.483 114.842 11.8244 113.925C12.1657 112.986 12.667 112.176 13.3284 111.493C13.9897 110.81 14.7897 110.288 15.7284 109.925C16.667 109.541 17.7444 109.349 18.9604 109.349C20.5177 109.349 21.8617 109.637 22.9924 110.213C24.1444 110.789 25.0404 111.632 25.6804 112.741C26.3204 113.829 26.6404 115.173 26.6404 116.773C26.6404 117.498 26.5337 118.192 26.3204 118.853C26.107 119.514 25.787 120.154 25.3604 120.773C24.955 121.37 24.4644 121.957 23.8884 122.533C23.3337 123.088 22.6937 123.642 21.9684 124.197C21.2644 124.752 20.4964 125.317 19.6644 125.893C18.8324 126.448 17.9577 127.013 17.0404 127.589L15.0244 128.805H26.1604C26.459 128.805 26.715 128.837 26.9284 128.901C27.1417 128.965 27.3017 129.104 27.4084 129.317C27.5364 129.53 27.6004 129.85 27.6004 130.277C27.6004 130.682 27.5364 130.992 27.4084 131.205C27.2804 131.418 27.1097 131.557 26.8964 131.621C26.683 131.685 26.4164 131.717 26.0964 131.717H12.7204Z" fill="#737373"/>
</g>
</g>
<mask id="mask4_308_4127" style="mask-type:luminance" maskUnits="userSpaceOnUse" x="48" y="96" width="39" height="57">
<path d="M82.0009 96.7207H53.5039C50.7425 96.7207 48.5039 98.9593 48.5039 101.721V148.001C48.5039 150.762 50.7425 153.001 53.5039 153.001H82.0009C84.7623 153.001 87.0009 150.762 87.0009 148.001V101.721C87.0009 98.9593 84.7624 96.7207 82.0009 96.7207Z" fill="white"/>
</mask>
<g mask="url(#mask4_308_4127)">
<mask id="mask5_308_4127" style="mask-type:luminance" maskUnits="userSpaceOnUse" x="48" y="96" width="39" height="57">
<path d="M87.0009 101.088C87.0009 98.3265 84.7623 96.0879 82.0009 96.0879H53.5039C50.7425 96.0879 48.5039 98.3265 48.5039 101.088V147.368C48.5039 150.129 50.7425 152.368 53.5039 152.368H82.0009C84.7624 152.368 87.0009 150.129 87.0009 147.368V101.088Z" fill="white"/>
</mask>
<g mask="url(#mask5_308_4127)">
<path d="M86.7385 101.34C86.7385 98.5784 84.4999 96.3398 81.7385 96.3398H53.7617C51.0003 96.3398 48.7617 98.5784 48.7617 101.34V147.122C48.7617 149.883 51.0003 152.122 53.7617 152.122H81.7385C84.4999 152.122 86.7385 149.883 86.7385 147.122V101.34Z" fill="white" stroke="black"/>
<path d="M85.963 102.584C85.963 99.8226 83.7244 97.584 80.963 97.584H54.5469C51.7854 97.584 49.5469 99.8226 49.5469 102.584V104.039C49.5469 106.801 51.7855 109.039 54.5469 109.039H80.963C83.7244 109.039 85.963 106.801 85.963 104.039V102.584Z" class='mini-header' fill="#EE964B"/>
</g>
</g>
</svg>
