<svg width="355" height="847" viewBox="0 0 355 847" fill="none" xmlns="http://www.w3.org/2000/svg">
<g clip-path="url(#clip0_221_55)">
<g filter="url(#filter0_d_221_55)">
<mask id="mask0_221_55" style="mask-type:luminance" maskUnits="userSpaceOnUse" x="60" y="293" width="190" height="194">
<path d="M249.437 336.484L144.671 293.586L60.0281 443.67L164.794 486.568L249.437 336.484Z" fill="white"/>
</mask>



<!-- Gve each one a class -->
<!-- Keep the Stroke black, change the fill color of each Path -->
<g mask="url(#mask0_221_55)">
<path d="M248.345 336.863L145.005 294.548L61.1211 443.291L164.461 485.606L248.345 336.863Z" fill="white" stroke="black" stroke-width="8"/>
<path d="M244.356 340.717L142.438 298.731L124.718 330.334L226.637 372.319L244.356 340.717Z" class='mini-header' fill="#FFEA00"/>
</g>

</g>
<mask id="mask1_221_55" style="mask-type:luminance" maskUnits="userSpaceOnUse" x="30" y="293" width="122" height="163">
<path d="M151.188 293H30V455.853H151.188V293Z" fill="white"/>
</mask>
<g mask="url(#mask1_221_55)">
<path d="M150.369 293.721H30.8184V455.132H150.369V293.721Z" fill="white" stroke="black"/>
<path d="M147.912 297.323H33.2744V330.47H147.912V297.323Z" class='mini-header' fill="#FFEA00"/>
<path d="M68.3375 427.145C68.3375 422.225 69.176 418.044 70.853 414.601C72.5999 411.157 74.8359 408.298 77.561 406.023C80.2861 403.686 83.71 401.349 87.8325 399.013C91.5358 396.984 94.2959 395.354 96.1126 394.124C97.9992 392.895 99.5714 391.388 100.829 389.605C102.157 387.822 102.821 385.762 102.821 383.425C102.821 380.597 101.528 378.229 98.9425 376.323C96.427 374.417 93.3176 373.464 89.6143 373.464C86.0507 373.464 82.9412 374.232 80.2861 375.77C77.6309 377.307 75.6743 378.721 74.4166 380.012C73.7178 380.689 73.1589 381.181 72.7396 381.488C72.3903 381.734 71.8662 381.857 71.1674 381.857C70.1893 381.857 69.3857 381.55 68.7568 380.935C68.1279 380.32 67.8135 379.643 67.8135 378.906C67.8135 378.352 68.0231 377.799 68.4423 377.245C68.8616 376.692 69.6652 375.954 70.853 375.032C76.5128 370.174 82.7667 367.745 89.6143 367.745C93.3875 367.745 96.7764 368.452 99.781 369.867C102.786 371.219 105.126 373.095 106.803 375.493C108.55 377.891 109.424 380.535 109.424 383.425C109.424 386.746 108.62 389.605 107.013 392.003C105.476 394.34 103.589 396.307 101.353 397.906C99.1173 399.443 96.0078 401.349 92.025 403.625C88.6011 405.592 85.7711 407.437 83.5352 409.159C81.2993 410.819 79.3776 412.91 77.7706 415.431C76.1635 417.89 75.2551 420.811 75.0455 424.193H107.013C107.921 424.193 108.69 424.501 109.319 425.115C110.018 425.669 110.367 426.345 110.367 427.145C110.367 427.883 110.018 428.528 109.319 429.082C108.69 429.635 107.921 429.912 107.013 429.912H68.3375V427.145Z" fill="black" fill-opacity="0.5"/>
</g>
<g filter="url(#filter1_d_221_55)">
<mask id="mask2_221_55" style="mask-type:luminance" maskUnits="userSpaceOnUse" x="30" y="293" width="122" height="163">
<path d="M151.188 293H30V455.853H151.188V293Z" fill="white"/>
</mask>
<g mask="url(#mask2_221_55)">
<path d="M150.369 293.721H30.8184V455.132H150.369V293.721Z" fill="white" stroke="black" stroke-width="8"/>
<path d="M147.912 297.323H33.2744V330.47H147.912V297.323Z" class='mini-header' fill="#FFEA00"/>
</g>
</g>

<path d="M66.7574 415V408.664C66.8214 405.912 67.6214 403.384 69.1574 401.08C70.6934 398.712 72.6454 396.504 75.0134 394.456C77.4454 392.344 80.0374 390.328 82.7894 388.408C85.5414 386.424 88.1014 384.44 90.4694 382.456C92.8374 380.472 94.7894 378.456 96.3254 376.408C97.8614 374.296 98.6294 372.056 98.6294 369.688C98.6294 367.896 98.2774 366.36 97.5734 365.08C96.8694 363.736 95.6854 362.552 94.0214 361.528L98.9174 364.312C94.4374 363.288 90.0214 362.776 85.6694 362.776C82.9814 362.776 80.2934 362.936 77.6054 363.256C74.9814 363.576 72.3254 364.056 69.6374 364.696L68.4854 358.936C71.8134 358.232 74.9174 357.688 77.7974 357.304C80.7414 356.92 83.4934 356.728 86.0534 356.728C92.3254 356.728 97.2214 357.816 100.741 359.992C104.261 362.168 106.021 365.368 106.021 369.592C106.021 372.472 105.253 375.128 103.717 377.56C102.181 379.992 100.197 382.264 97.7654 384.376C95.3974 386.488 92.8374 388.536 90.0854 390.52C87.3974 392.44 84.8374 394.36 82.4054 396.28C80.0374 398.2 78.0854 400.184 76.5494 402.232C75.0134 404.28 74.2134 406.456 74.1494 408.76L74.0534 415H66.7574ZM69.9254 415V410.008L105.925 409.144V415H69.9254ZM100.549 415L105.157 396.088H107.941L108.229 415H100.549ZM68.7734 378.232L68.4854 358.936H75.7814L71.5574 378.232H68.7734Z" fill="black" fill-opacity="0.7"/>
</g>
<mask id="mask3_221_55" style="mask-type:luminance" maskUnits="userSpaceOnUse" x="30" y="27" width="126" height="179">
<path d="M156 27H30V206H156V27Z" fill="white"/>
</mask>
<g mask="url(#mask3_221_55)">
<path d="M155.148 27.792H30.8506V205.208H155.148V27.792Z" fill="white" stroke="black" stroke-width="8"/>
<path d="M152.594 31.7529H33.4053V68.1866H152.594V31.7529Z" class='mini-header' fill="#FFEA00"/>
<path d="M77.8085 155V152.504C80.0485 151.928 82.2565 151.48 84.4325 151.16C86.6085 150.776 88.7205 150.488 90.7685 150.296L91.5365 102.872H78.5765V100.376L94.1285 96.824H98.8325V150.296L111.217 152.12V155H77.8085Z" fill="black" fill-opacity="0.7"/>
</g>
<mask id="mask4_221_55" style="mask-type:luminance" maskUnits="userSpaceOnUse" x="109" y="628" width="220" height="190">
<path d="M328.683 729.576L269.13 628.034L109.081 716.138L168.635 817.68L328.683 729.576Z" fill="white"/>
</mask>
<g mask="url(#mask4_221_55)">
<path d="M327.573 729.28L268.824 629.11L110.191 716.435L168.94 816.605L327.573 729.28Z" fill="white" stroke="black" stroke-width="6"/>
<path d="M322.825 729.171L266.49 633.117L233.914 651.05L290.249 747.104L322.825 729.171Z" class='mini-header' fill="#FFEA00"/>
</g>
<g filter="url(#filter2_d_221_55)">
<mask id="mask5_221_55" style="mask-type:luminance" maskUnits="userSpaceOnUse" x="68" y="587" width="200" height="214">
<path d="M267.997 648.744L165.673 587L68.3539 738.379L170.678 800.123L267.997 648.744Z" fill="white"/>
</mask>
<g mask="url(#mask5_221_55)">
<path d="M266.877 648.996L165.934 588.087L69.4766 738.127L170.418 799.036L266.877 648.996Z" fill="white" stroke="black" stroke-width="8"/>
<path d="M262.649 651.093L165.855 592.688L146.047 623.499L242.84 681.905L262.649 651.093Z" class='mini-header' fill="#FFEA00"/>
</g>
</g>
<mask id="mask6_221_55" style="mask-type:luminance" maskUnits="userSpaceOnUse" x="26" y="587" width="121" height="179">
<path d="M146.548 587H26V765.34H146.548V587Z" fill="white"/>
</mask>
<g mask="url(#mask6_221_55)">
<path d="M145.734 587.789H26.8145V764.551H145.734V587.789Z" fill="white" stroke="black"/>
<path d="M143.29 591.734H29.2578V628.034H143.29V591.734Z" class='mini-header' fill="#FFEA00"/>
<path d="M85.3233 720.177C81.2225 720.177 77.6778 719.437 74.689 717.955C71.7697 716.407 69.5456 714.79 68.0165 713.107C66.4873 711.423 65.4796 710.077 64.993 709.067C64.6455 708.528 64.4717 707.855 64.4717 707.047C64.4717 706.171 64.7498 705.464 65.3057 704.925C65.9313 704.387 66.6958 704.117 67.5994 704.117C68.9895 704.117 69.9627 704.69 70.5186 705.834C71.6308 707.72 73.3683 709.538 75.7315 711.289C78.1642 712.972 81.2919 713.814 85.1148 713.814C87.617 713.814 90.0496 713.275 92.4128 712.198C94.7761 711.12 96.6874 709.504 98.147 707.35C99.6762 705.127 100.441 702.468 100.441 699.37C100.441 695.666 99.4328 692.704 97.4172 690.481C95.4016 688.259 93.0731 686.711 90.4319 685.835C87.7908 684.96 85.4275 684.522 83.3424 684.522C82.4388 684.522 81.6743 684.219 81.0487 683.613C80.4927 683.007 80.2146 682.266 80.2146 681.391C80.2146 680.448 80.5274 679.707 81.153 679.169C81.7785 678.563 82.543 678.26 83.4466 678.26C85.8099 678.26 88.173 677.721 90.5362 676.643C92.9688 675.499 94.9497 674.017 96.4789 672.199C98.0081 670.381 98.7726 668.428 98.7726 666.341C98.7726 664.859 98.2166 663.412 97.1045 661.997C96.0619 660.583 94.498 659.439 92.4128 658.563C90.3972 657.688 87.9993 657.25 85.219 657.25C82.1609 657.25 79.7281 657.621 77.921 658.361C76.1139 659.102 74.4805 660.011 73.0208 661.088C72.1172 661.762 71.3527 662.098 70.7272 662.098C69.6846 662.098 68.8852 661.795 68.3292 661.189C67.7732 660.516 67.4952 659.775 67.4952 658.967C67.4952 657.621 68.6767 656.206 71.0399 654.725C72.847 653.648 74.967 652.738 77.3997 651.998C79.8323 651.257 82.4388 650.887 85.219 650.887C88.9028 650.887 92.2739 651.594 95.3321 653.008C98.4598 654.355 100.892 656.206 102.63 658.563C104.437 660.92 105.341 663.513 105.341 666.341C105.341 669.371 104.437 672.199 102.63 674.825C100.823 677.384 98.4251 679.505 95.4363 681.189C99.1201 682.805 101.935 685.229 103.881 688.461C105.897 691.693 106.905 695.33 106.905 699.37C106.905 704.084 105.758 708.023 103.464 711.188C101.171 714.285 98.3555 716.575 95.0193 718.056C91.683 719.47 88.451 720.177 85.3233 720.177Z" fill="black" fill-opacity="0.5"/>
</g>
<g filter="url(#filter3_d_221_55)">
<mask id="mask7_221_55" style="mask-type:luminance" maskUnits="userSpaceOnUse" x="26" y="587" width="121" height="179">
<path d="M146.548 587H26V765.34H146.548V587Z" fill="white"/>
</mask>
<g mask="url(#mask7_221_55)">
<path d="M145.734 587.789H26.8145V764.551H145.734V587.789Z" fill="white" stroke="black" stroke-width="8"/>
<path d="M143.29 591.735H29.2578V628.035H143.29V591.735Z" class='mini-header' fill="#FFEA00"/>
<path d="M66.9897 720.176L68.5257 715.088C71.4057 715.792 74.0617 716.336 76.4937 716.72C78.9257 717.104 81.1337 717.296 83.1177 717.296C87.9817 717.296 91.7897 716.368 94.5417 714.512C97.2937 712.592 98.6697 709.776 98.6697 706.064C98.6697 702.672 97.4537 699.984 95.0217 698C92.5897 695.952 89.2617 694.928 85.0377 694.928H78.0297V689.456H83.0217C85.8377 689.456 88.3337 689.008 90.5097 688.112C92.6857 687.216 94.3817 685.936 95.5977 684.272C96.8137 682.544 97.4217 680.528 97.4217 678.224C97.4217 676.624 97.1017 675.152 96.4617 673.808C95.8857 672.464 95.0857 671.248 94.0617 670.16C91.5657 669.456 88.6537 669.104 85.3257 669.104C83.0217 669.104 80.5577 669.296 77.9337 669.68C75.3737 670 72.6217 670.512 69.6777 671.216L68.1417 666.128C71.2777 665.232 74.2857 664.592 77.1657 664.208C80.1097 663.76 82.8297 663.536 85.3257 663.536C89.4857 663.536 93.0057 664.08 95.8857 665.168C98.8297 666.192 101.102 667.728 102.702 669.776C104.302 671.76 105.102 674.192 105.102 677.072C105.102 680.464 103.982 683.472 101.742 686.096C99.5017 688.656 96.3337 690.512 92.2377 691.664C96.8457 692.624 100.366 694.384 102.798 696.944C105.23 699.44 106.446 702.608 106.446 706.448C106.446 709.904 105.486 712.848 103.566 715.28C101.71 717.712 99.0857 719.6 95.6937 720.944C92.3017 722.224 88.3337 722.864 83.7897 722.864C81.2297 722.864 78.5417 722.64 75.7257 722.192C72.9737 721.744 70.0617 721.072 66.9897 720.176ZM67.4697 703.088H70.3497L74.6697 720.176H66.9897L67.4697 703.088ZM68.5257 683.12L68.1417 666.128H75.7257L71.4057 683.12H68.5257Z" fill="black" fill-opacity="0.7"/>
</g>
</g>
<defs>
<filter id="filter0_d_221_55" x="60.0283" y="293.586" width="198.409" height="202.981" filterUnits="userSpaceOnUse" color-interpolation-filters="sRGB">
<feFlood flood-opacity="0" result="BackgroundImageFix"/>
<feColorMatrix in="SourceAlpha" type="matrix" values="0 0 0 0 0 0 0 0 0 0 0 0 0 0 0 0 0 0 127 0" result="hardAlpha"/>
<feOffset dx="5" dy="6"/>
<feGaussianBlur stdDeviation="2"/>
<feComposite in2="hardAlpha" operator="out"/>
<feColorMatrix type="matrix" values="0 0 0 0 0 0 0 0 0 0 0 0 0 0 0 0 0 0 0.25 0"/>
<feBlend mode="normal" in2="BackgroundImageFix" result="effect1_dropShadow_221_55"/>
<feBlend mode="normal" in="SourceGraphic" in2="effect1_dropShadow_221_55" result="shape"/>
</filter>
<filter id="filter1_d_221_55" x="30" y="293" width="130.188" height="172.853" filterUnits="userSpaceOnUse" color-interpolation-filters="sRGB">
<feFlood flood-opacity="0" result="BackgroundImageFix"/>
<feColorMatrix in="SourceAlpha" type="matrix" values="0 0 0 0 0 0 0 0 0 0 0 0 0 0 0 0 0 0 127 0" result="hardAlpha"/>
<feOffset dx="5" dy="6"/>
<feGaussianBlur stdDeviation="2"/>
<feComposite in2="hardAlpha" operator="out"/>
<feColorMatrix type="matrix" values="0 0 0 0 0 0 0 0 0 0 0 0 0 0 0 0 0 0 0.25 0"/>
<feBlend mode="normal" in2="BackgroundImageFix" result="effect1_dropShadow_221_55"/>
<feBlend mode="normal" in="SourceGraphic" in2="effect1_dropShadow_221_55" result="shape"/>
</filter>
<filter id="filter2_d_221_55" x="68.3535" y="587" width="208.644" height="221.123" filterUnits="userSpaceOnUse" color-interpolation-filters="sRGB">
<feFlood flood-opacity="0" result="BackgroundImageFix"/>
<feColorMatrix in="SourceAlpha" type="matrix" values="0 0 0 0 0 0 0 0 0 0 0 0 0 0 0 0 0 0 127 0" result="hardAlpha"/>
<feOffset dx="5" dy="4"/>
<feGaussianBlur stdDeviation="2"/>
<feComposite in2="hardAlpha" operator="out"/>
<feColorMatrix type="matrix" values="0 0 0 0 0 0 0 0 0 0 0 0 0 0 0 0 0 0 0.25 0"/>
<feBlend mode="normal" in2="BackgroundImageFix" result="effect1_dropShadow_221_55"/>
<feBlend mode="normal" in="SourceGraphic" in2="effect1_dropShadow_221_55" result="shape"/>
</filter>
<filter id="filter3_d_221_55" x="26" y="587" width="134.549" height="196.34" filterUnits="userSpaceOnUse" color-interpolation-filters="sRGB">
<feFlood flood-opacity="0" result="BackgroundImageFix"/>
<feColorMatrix in="SourceAlpha" type="matrix" values="0 0 0 0 0 0 0 0 0 0 0 0 0 0 0 0 0 0 127 0" result="hardAlpha"/>
<feOffset dx="10" dy="14"/>
<feGaussianBlur stdDeviation="2"/>
<feComposite in2="hardAlpha" operator="out"/>
<feColorMatrix type="matrix" values="0 0 0 0 0 0 0 0 0 0 0 0 0 0 0 0 0 0 0.25 0"/>
<feBlend mode="normal" in2="BackgroundImageFix" result="effect1_dropShadow_221_55"/>
<feBlend mode="normal" in="SourceGraphic" in2="effect1_dropShadow_221_55" result="shape"/>
</filter>
<clipPath id="clip0_221_55">
<rect width="226" height="196" fill="white" transform="translate(30 293)"/>
</clipPath>
</defs>
</svg>
